{"glyphs":{"0":{"ha":993,"x_min":86,"x_max":907,"o":"m 907 488 q 878 293 907 385 q 795 133 849 201 q 665 24 742 64 q 496 -17 589 -17 q 326 23 401 -17 q 197 131 250 63 q 115 291 143 200 q 86 485 86 382 q 115 679 86 588 q 198 840 144 771 q 328 949 251 908 q 499 989 404 989 q 667 949 592 989 q 797 841 743 910 q 878 681 850 772 q 907 488 907 590 m 793 485 q 772 638 793 565 q 713 767 751 711 q 619 856 674 822 q 496 889 564 889 q 373 856 428 889 q 280 769 318 824 q 221 641 242 714 q 200 488 200 568 q 221 333 200 407 q 281 204 242 260 q 375 116 319 149 q 499 83 431 83 q 622 116 567 83 q 715 203 676 149 q 773 331 753 258 q 793 485 793 404 "},"1":{"ha":497,"x_min":39,"x_max":357,"o":"m 39 897 l 276 979 l 357 979 l 357 0 l 249 0 l 249 865 l 65 808 l 39 897 "},"2":{"ha":832,"x_min":67,"x_max":746,"o":"m 426 888 q 283 845 343 888 q 165 721 224 803 l 85 779 q 153 867 118 828 q 228 932 188 906 q 320 972 269 958 q 435 986 371 986 q 556 965 501 986 q 651 908 611 944 q 714 820 692 871 q 736 710 736 769 q 722 611 736 656 q 676 523 707 567 q 600 433 646 479 q 490 331 554 386 l 231 100 l 746 100 l 746 0 l 67 0 l 67 85 l 419 396 q 514 486 475 446 q 577 562 553 526 q 612 631 601 597 q 622 701 622 665 q 606 778 622 744 q 564 837 590 813 q 501 874 538 861 q 426 888 465 888 "},"3":{"ha":851,"x_min":69,"x_max":757,"o":"m 596 874 l 121 874 l 121 972 l 742 972 l 742 892 l 436 553 q 558 529 500 547 q 660 478 617 511 q 731 394 704 444 q 757 278 757 344 q 731 158 757 213 q 662 65 706 104 q 559 5 618 26 q 432 -17 500 -17 q 219 31 310 -17 q 69 157 129 79 l 149 228 q 274 121 206 158 q 433 83 343 83 q 517 97 478 83 q 584 135 556 110 q 629 195 613 160 q 646 274 646 231 q 570 414 646 365 q 374 463 494 463 l 311 463 l 289 528 l 596 874 "},"4":{"ha":932,"x_min":60,"x_max":857,"o":"m 610 979 l 706 979 l 706 322 l 857 322 l 857 231 l 706 231 l 706 0 l 600 0 l 600 231 l 88 231 l 60 310 l 610 979 m 600 322 l 600 824 l 192 322 l 600 322 "},"5":{"ha":850,"x_min":74,"x_max":768,"o":"m 138 499 l 165 972 l 725 972 l 725 871 l 261 871 l 240 560 q 327 591 283 579 q 432 603 371 603 q 564 582 503 603 q 671 523 625 561 q 742 429 717 485 q 768 304 768 374 q 742 173 768 232 q 671 72 717 114 q 561 6 625 29 q 421 -17 497 -17 q 228 27 317 -17 q 74 138 140 71 l 146 217 q 278 119 210 154 q 422 83 347 83 q 517 99 474 83 q 592 144 561 115 q 640 213 622 174 q 657 300 657 253 q 640 383 657 346 q 590 448 622 421 q 514 490 558 475 q 415 506 469 506 q 303 490 353 506 q 211 450 254 474 l 138 499 "},"6":{"ha":899,"x_min":85,"x_max":811,"o":"m 776 878 l 713 793 q 604 864 658 839 q 483 889 550 889 q 364 857 417 889 q 274 768 311 825 q 218 633 238 711 q 199 460 199 554 q 244 516 218 489 q 303 563 269 543 q 380 596 338 583 q 475 608 422 608 q 604 588 543 608 q 711 527 665 567 q 784 432 757 488 q 811 308 811 376 q 784 178 811 238 q 710 75 757 118 q 600 8 664 32 q 463 -17 536 -17 q 317 10 382 -17 q 207 82 253 36 q 155 146 178 111 q 117 225 132 181 q 93 327 101 269 q 85 460 85 385 q 112 667 85 571 q 191 835 139 764 q 318 948 243 907 q 489 989 393 989 q 644 960 576 989 q 776 878 713 931 m 699 304 q 681 388 699 350 q 633 454 664 426 q 558 498 601 482 q 461 514 514 514 q 362 496 407 514 q 285 448 317 478 q 235 380 253 418 q 218 300 218 342 q 236 213 218 253 q 287 143 254 172 q 365 97 319 114 q 464 81 410 81 q 561 98 518 81 q 635 145 604 115 q 682 216 665 175 q 699 304 699 257 "},"7":{"ha":828,"x_min":94,"x_max":754,"o":"m 94 872 l 94 972 l 754 972 l 754 890 l 313 0 l 190 0 l 629 872 l 94 872 "},"8":{"ha":875,"x_min":72,"x_max":803,"o":"m 803 264 q 775 150 803 201 q 698 63 747 99 q 582 6 649 26 q 438 -14 515 -14 q 293 6 360 -14 q 177 63 226 26 q 100 150 128 99 q 72 263 72 201 q 128 410 72 350 q 272 503 185 471 q 208 540 239 518 q 155 588 178 561 q 119 650 132 615 q 106 728 106 685 q 133 832 106 785 q 205 914 160 879 q 310 967 250 949 q 438 986 371 986 q 565 967 504 986 q 670 914 625 949 q 742 832 715 879 q 769 728 769 785 q 756 650 769 685 q 720 588 743 615 q 667 540 697 561 q 603 503 636 518 q 747 411 690 471 q 803 264 803 351 m 660 721 q 643 788 660 757 q 597 842 626 819 q 526 878 567 865 q 438 890 485 890 q 349 878 390 890 q 278 842 308 865 q 232 789 249 819 q 215 721 215 758 q 233 648 215 681 q 280 592 250 615 q 351 555 310 568 q 438 542 392 542 q 524 555 483 542 q 595 592 565 568 q 642 648 625 615 q 660 721 660 681 m 692 265 q 672 341 692 307 q 617 399 651 375 q 537 438 583 424 q 438 451 490 451 q 338 438 385 451 q 257 399 292 424 q 203 341 222 375 q 183 265 183 307 q 201 194 183 228 q 251 136 218 161 q 331 97 283 111 q 438 82 378 82 q 544 97 497 82 q 624 136 592 111 q 674 194 657 161 q 692 265 692 228 "},"9":{"ha":899,"x_min":88,"x_max":814,"o":"m 814 511 q 785 298 814 394 q 702 131 756 201 q 574 22 649 61 q 410 -17 500 -17 q 243 17 314 -17 q 110 103 172 51 l 174 188 q 290 109 233 135 q 413 83 347 83 q 532 115 478 83 q 624 203 586 147 q 683 338 663 260 q 701 510 703 417 q 594 400 661 446 q 426 354 528 354 q 289 376 351 354 q 182 439 226 399 q 113 535 138 479 q 88 657 88 590 q 113 787 88 726 q 185 892 139 847 q 295 963 231 938 q 438 989 360 989 q 583 963 521 989 q 693 889 646 936 q 744 825 722 860 q 782 745 767 790 q 806 642 797 700 q 814 511 814 585 m 681 669 q 663 757 681 717 q 612 827 644 797 q 533 874 579 857 q 433 892 488 892 q 335 873 379 892 q 262 823 292 854 q 216 750 232 792 q 200 663 200 708 q 217 576 200 615 q 266 509 235 538 q 342 465 297 481 q 439 449 386 449 q 540 467 494 449 q 616 517 585 486 q 664 588 647 547 q 681 669 681 628 "}," ":{"ha":417,"x_min":0,"x_max":0,"o":""},"!":{"ha":376,"x_min":125,"x_max":253,"o":"m 126 972 l 251 972 l 251 893 l 218 275 l 158 275 l 126 893 l 126 972 m 253 0 l 125 0 l 125 146 l 253 146 l 253 0 "},"\"":{"ha":611,"x_min":90,"x_max":532,"o":"m 361 594 l 404 972 l 532 972 l 532 965 l 419 594 l 361 594 m 90 594 l 132 972 l 261 972 l 261 965 l 149 594 l 90 594 "},"#":{"ha":972,"x_min":63,"x_max":908,"o":"m 908 636 l 742 636 l 690 342 l 854 342 l 854 246 l 675 246 l 632 0 l 535 0 l 576 246 l 313 246 l 269 0 l 172 0 l 214 246 l 63 246 l 63 342 l 231 342 l 282 636 l 117 636 l 117 732 l 297 732 l 339 972 l 436 972 l 396 732 l 660 732 l 701 972 l 799 972 l 758 732 l 908 732 l 908 636 m 643 636 l 379 636 l 329 342 l 593 342 l 643 636 "},"$":{"ha":883,"x_min":78,"x_max":790,"o":"m 790 263 q 769 160 790 206 q 708 79 747 114 q 615 24 669 44 q 494 0 560 4 l 494 -136 l 406 -136 l 406 3 q 232 47 313 11 q 78 146 151 83 l 140 229 q 267 139 203 172 q 410 97 331 106 l 410 444 q 185 543 256 481 q 114 715 114 606 q 135 815 114 769 q 196 894 157 860 q 288 949 235 928 q 406 972 342 969 l 406 1053 l 494 1053 l 494 969 q 636 934 574 963 q 760 858 699 906 l 700 775 q 598 842 650 818 q 490 875 546 865 l 490 533 q 719 433 649 497 q 790 263 790 368 m 410 553 l 410 879 q 331 865 365 878 q 272 831 296 851 q 234 782 247 810 q 221 722 221 754 q 229 668 221 693 q 258 622 238 643 q 316 584 279 601 q 410 553 353 567 m 683 256 q 675 311 683 286 q 644 357 667 336 q 585 394 622 378 q 490 425 549 411 l 490 93 q 631 142 579 97 q 683 256 683 186 "},"%":{"ha":1158,"x_min":72,"x_max":1085,"o":"m 513 736 q 497 641 513 686 q 451 561 481 596 q 382 506 422 526 q 292 486 342 486 q 201 506 242 486 q 133 560 161 526 q 88 639 104 594 q 72 733 72 683 q 88 828 72 783 q 133 908 104 874 q 203 963 163 943 q 294 983 244 983 q 383 963 343 983 q 452 909 424 943 q 497 831 481 875 q 513 736 513 786 m 985 972 l 272 0 l 172 0 l 886 972 l 985 972 m 1085 239 q 1069 144 1085 189 q 1024 64 1053 99 q 955 9 996 29 q 864 -11 914 -11 q 775 9 815 -11 q 706 63 735 29 q 662 142 678 97 q 646 236 646 186 q 662 331 646 286 q 707 411 678 376 q 776 466 736 446 q 867 486 817 486 q 957 466 917 486 q 1026 412 997 446 q 1069 333 1054 378 q 1085 239 1085 289 m 421 733 q 410 802 421 771 q 383 856 400 833 q 342 892 365 879 q 292 906 318 906 q 240 892 263 906 q 200 856 217 879 q 174 802 183 833 q 165 736 165 771 q 175 667 165 699 q 203 613 185 636 q 244 577 221 590 q 294 564 267 564 q 346 577 322 564 q 386 613 369 590 q 412 667 403 636 q 421 733 421 697 m 993 236 q 983 305 993 274 q 956 359 974 336 q 914 395 938 382 q 864 408 890 408 q 813 395 836 408 q 772 359 789 382 q 747 305 756 336 q 738 239 738 274 q 747 170 738 201 q 775 116 757 139 q 816 80 793 93 q 867 67 839 67 q 919 80 896 67 q 958 116 942 93 q 984 169 975 139 q 993 236 993 200 "},"&":{"ha":967,"x_min":63,"x_max":922,"o":"m 922 44 l 839 -19 l 686 138 q 542 26 619 65 q 368 -14 464 -14 q 247 6 303 -14 q 149 61 190 25 q 85 148 108 97 q 63 260 63 199 q 124 428 63 358 q 297 542 185 497 q 224 649 247 600 q 200 757 200 699 q 219 848 200 806 q 271 922 238 890 q 351 971 304 953 q 457 989 399 989 q 551 972 508 989 q 626 924 594 954 q 675 854 657 894 q 693 768 693 814 q 632 612 693 672 q 464 514 571 551 l 686 288 q 747 389 718 335 q 803 504 776 443 l 893 463 q 827 332 861 393 q 753 218 793 271 l 922 44 m 590 763 q 551 860 590 822 q 453 899 513 899 q 346 858 386 899 q 306 757 306 818 q 310 715 306 735 q 326 675 315 696 q 356 630 338 654 q 403 576 375 606 q 543 653 496 608 q 590 763 590 697 m 619 206 l 360 474 q 218 382 263 438 q 174 264 174 326 q 188 190 174 224 q 230 132 203 157 q 294 93 257 107 q 376 79 332 79 q 506 113 446 79 q 619 206 567 147 "},"'":{"ha":340,"x_min":90,"x_max":263,"o":"m 90 594 l 132 972 l 263 972 l 263 965 l 150 594 l 90 594 "},"(":{"ha":603,"x_min":94,"x_max":525,"o":"m 525 922 q 284 694 365 821 q 203 399 203 567 q 284 103 203 231 q 525 -125 365 -24 l 479 -196 q 194 57 293 -92 q 94 399 94 206 q 194 740 94 592 q 479 993 293 889 l 525 922 "},")":{"ha":603,"x_min":78,"x_max":508,"o":"m 78 922 l 124 993 q 409 740 310 889 q 508 399 508 592 q 409 57 508 206 q 124 -196 310 -92 l 78 -125 q 319 103 238 -24 q 400 399 400 231 q 319 694 400 567 q 78 922 238 821 "},"*":{"ha":597,"x_min":96,"x_max":501,"o":"m 501 689 l 464 624 l 321 725 l 335 551 l 263 551 l 276 725 l 133 624 l 96 689 l 257 763 l 96 838 l 133 901 l 276 801 l 263 975 l 335 975 l 321 801 l 464 901 l 501 838 l 340 763 l 501 689 "},"+":{"ha":889,"x_min":104,"x_max":785,"o":"m 393 539 l 393 825 l 496 825 l 496 539 l 785 539 l 785 439 l 496 439 l 496 153 l 393 153 l 393 439 l 104 439 l 104 539 l 393 539 "},",":{"ha":340,"x_min":64,"x_max":235,"o":"m 64 -121 q 139 -73 117 -101 q 157 0 161 -44 l 107 0 l 107 146 l 235 146 l 235 21 q 197 -108 235 -64 q 81 -169 160 -151 l 64 -121 "},"-":{"ha":567,"x_min":90,"x_max":476,"o":"m 476 361 l 90 361 l 90 474 l 476 474 l 476 361 "},".":{"ha":340,"x_min":107,"x_max":235,"o":"m 235 0 l 107 0 l 107 146 l 235 146 l 235 0 "},"/":{"ha":706,"x_min":-29,"x_max":714,"o":"m 615 1108 l 714 1108 l 69 -178 l -29 -178 l 615 1108 "},":":{"ha":354,"x_min":114,"x_max":242,"o":"m 242 572 l 114 572 l 114 718 l 242 718 l 242 572 m 242 0 l 114 0 l 114 146 l 242 146 l 242 0 "},";":{"ha":354,"x_min":71,"x_max":242,"o":"m 242 572 l 114 572 l 114 718 l 242 718 l 242 572 m 71 -121 q 146 -73 124 -101 q 164 0 168 -44 l 114 0 l 114 146 l 242 146 l 242 21 q 204 -108 242 -64 q 88 -169 167 -151 l 71 -121 "},"<":{"ha":889,"x_min":100,"x_max":751,"o":"m 100 535 l 751 858 l 751 751 l 217 490 l 751 228 l 751 119 l 100 443 l 100 535 "},"=":{"ha":889,"x_min":125,"x_max":764,"o":"m 125 703 l 764 703 l 764 600 l 125 600 l 125 703 m 125 378 l 764 378 l 764 275 l 125 275 l 125 378 "},">":{"ha":889,"x_min":138,"x_max":789,"o":"m 789 443 l 138 119 l 138 226 l 672 488 l 138 750 l 138 858 l 789 535 l 789 443 "},"?":{"ha":746,"x_min":42,"x_max":679,"o":"m 292 507 q 498 563 428 510 q 568 704 568 615 q 554 775 568 742 q 514 833 540 808 q 450 872 488 858 q 365 886 413 886 q 226 852 288 886 q 113 756 165 818 l 42 824 q 179 940 101 896 q 368 985 257 985 q 496 964 439 985 q 594 906 553 943 q 657 819 635 869 q 679 708 679 768 q 656 594 679 643 q 594 510 633 544 q 502 454 554 475 q 390 425 450 433 l 376 275 l 306 275 l 285 500 l 292 507 m 404 0 l 276 0 l 276 146 l 404 146 l 404 0 "},"@":{"ha":1361,"x_min":74,"x_max":1288,"o":"m 1288 439 q 1265 286 1288 350 q 1206 181 1242 222 q 1122 119 1169 139 q 1028 99 1075 99 q 902 131 951 99 q 833 215 853 163 q 738 133 793 167 q 604 99 682 99 q 508 117 553 99 q 428 168 463 135 q 375 248 394 201 q 356 351 356 294 q 383 488 356 425 q 457 598 411 551 q 560 671 503 644 q 676 697 618 697 q 749 688 717 697 q 806 662 781 678 q 849 625 831 646 q 879 582 867 604 l 897 678 l 990 665 l 935 350 q 927 299 929 321 q 925 265 925 276 q 956 183 925 213 q 1043 153 986 153 q 1115 169 1081 153 q 1177 222 1150 186 q 1221 311 1204 257 q 1238 439 1238 365 q 1195 625 1238 535 q 1078 786 1153 715 q 903 899 1004 857 q 682 942 801 942 q 460 897 563 942 q 283 776 358 853 q 166 598 208 700 q 124 381 124 496 q 166 163 124 264 q 283 -15 208 61 q 463 -134 358 -90 q 693 -178 568 -178 q 878 -154 797 -178 q 1039 -83 958 -131 l 1061 -121 q 891 -197 981 -169 q 693 -225 801 -225 q 447 -177 560 -225 q 250 -47 333 -129 q 120 146 167 36 q 74 381 74 256 q 121 616 74 506 q 250 809 168 726 q 443 940 332 892 q 682 989 554 989 q 920 944 810 989 q 1113 823 1031 899 q 1241 647 1194 747 q 1288 439 1288 547 m 853 435 q 840 505 853 472 q 805 561 828 538 q 751 598 782 585 q 683 611 719 611 q 598 592 639 611 q 526 538 557 572 q 475 458 494 504 q 456 358 456 413 q 503 230 456 275 q 625 185 550 185 q 711 206 669 185 q 784 261 753 226 q 834 341 815 296 q 853 435 853 386 "},"A":{"ha":1097,"x_min":54,"x_max":1043,"o":"m 600 979 l 1043 0 l 925 0 l 811 257 l 282 257 l 167 0 l 54 0 l 497 979 l 600 979 m 768 356 l 547 851 l 325 356 l 768 356 "},"B":{"ha":1003,"x_min":138,"x_max":922,"o":"m 551 972 q 682 955 624 972 q 782 906 740 938 q 846 830 824 875 q 868 729 868 785 q 855 644 868 681 q 819 581 842 608 q 770 534 797 553 q 714 503 743 515 q 795 470 757 490 q 861 422 833 450 q 906 356 889 394 q 922 267 922 317 q 897 154 922 204 q 826 70 872 104 q 714 18 779 36 q 569 0 649 0 l 138 0 l 138 972 l 551 972 m 533 539 q 694 583 632 539 q 757 714 757 628 q 701 831 757 788 q 542 874 646 874 l 246 874 l 246 539 l 533 539 m 572 99 q 747 144 683 99 q 811 274 811 190 q 746 398 811 354 q 553 442 681 442 l 246 442 l 246 99 l 572 99 "},"C":{"ha":1025,"x_min":94,"x_max":971,"o":"m 971 154 q 892 84 933 115 q 804 31 851 53 q 703 -4 757 8 q 582 -17 649 -17 q 388 22 476 -17 q 233 128 299 61 q 131 288 168 196 q 94 485 94 379 q 131 681 94 589 q 233 841 168 772 q 389 949 299 910 q 586 989 479 989 q 706 978 653 989 q 806 947 760 967 q 890 898 851 926 q 965 835 929 869 l 890 754 q 756 850 828 813 q 585 888 685 888 q 435 857 504 888 q 316 772 367 826 q 237 645 265 718 q 208 488 208 572 q 237 329 208 403 q 316 201 265 256 q 435 116 367 147 q 585 85 504 85 q 757 122 685 85 q 899 225 829 158 l 971 154 "},"D":{"ha":1086,"x_min":138,"x_max":992,"o":"m 992 488 q 954 295 992 385 q 848 140 917 206 q 684 38 779 75 q 475 0 589 0 l 138 0 l 138 972 l 475 972 q 684 935 589 972 q 848 833 779 899 q 954 679 917 768 q 992 488 992 590 m 878 485 q 849 636 878 565 q 769 759 821 707 q 642 841 717 811 q 475 871 567 871 l 247 871 l 247 101 l 475 101 q 642 131 567 101 q 769 212 717 160 q 849 333 821 264 q 878 485 878 403 "},"E":{"ha":931,"x_min":138,"x_max":847,"o":"m 840 972 l 840 872 l 247 872 l 247 540 l 778 540 l 778 440 l 247 440 l 247 100 l 847 100 l 847 0 l 138 0 l 138 972 l 840 972 "},"F":{"ha":911,"x_min":138,"x_max":836,"o":"m 836 972 l 836 871 l 247 871 l 247 524 l 774 524 l 774 424 l 247 424 l 247 0 l 138 0 l 138 972 l 836 972 "},"G":{"ha":1089,"x_min":94,"x_max":979,"o":"m 979 132 q 812 27 911 71 q 589 -17 713 -17 q 383 22 474 -17 q 227 129 292 61 q 128 289 163 197 q 94 485 94 381 q 130 676 94 585 q 229 838 165 768 q 383 948 293 907 q 582 989 472 989 q 694 981 643 989 q 788 956 744 972 q 870 915 832 939 q 944 860 908 890 l 874 776 q 815 822 846 801 q 749 856 785 842 q 672 879 714 871 q 578 888 629 888 q 429 856 497 888 q 313 769 361 824 q 236 642 264 715 q 208 488 208 569 q 235 326 208 400 q 313 197 263 251 q 433 113 363 143 q 593 82 504 82 q 750 110 676 82 q 874 179 824 139 l 874 421 l 578 421 l 578 519 l 979 519 l 979 132 "},"H":{"ha":1056,"x_min":138,"x_max":918,"o":"m 808 438 l 247 438 l 247 0 l 138 0 l 138 972 l 247 972 l 247 540 l 808 540 l 808 972 l 918 972 l 918 0 l 808 0 l 808 438 "},"I":{"ha":404,"x_min":147,"x_max":257,"o":"m 147 972 l 257 972 l 257 0 l 147 0 l 147 972 "},"J":{"ha":768,"x_min":43,"x_max":646,"o":"m 646 322 q 623 176 646 239 q 560 70 600 113 q 464 7 519 28 q 343 -14 408 -14 q 161 35 233 -14 q 43 158 89 83 l 122 226 q 217 123 167 158 q 344 88 268 88 q 481 147 426 88 q 535 321 535 206 l 535 972 l 646 972 l 646 322 "},"K":{"ha":999,"x_min":138,"x_max":965,"o":"m 531 547 l 965 0 l 828 0 l 454 471 l 247 261 l 247 0 l 138 0 l 138 972 l 247 972 l 247 392 l 806 972 l 947 972 l 531 547 "},"L":{"ha":860,"x_min":138,"x_max":794,"o":"m 138 0 l 138 972 l 247 972 l 247 101 l 794 101 l 794 0 l 138 0 "},"M":{"ha":1206,"x_min":138,"x_max":1068,"o":"m 958 788 l 604 267 l 599 267 l 244 786 l 244 0 l 138 0 l 138 972 l 249 972 l 603 442 l 957 972 l 1068 972 l 1068 0 l 958 0 l 958 788 "},"N":{"ha":1097,"x_min":138,"x_max":960,"o":"m 853 193 l 853 972 l 960 972 l 960 0 l 872 0 l 244 797 l 244 0 l 138 0 l 138 972 l 240 972 l 853 193 "},"O":{"ha":1181,"x_min":94,"x_max":1086,"o":"m 1086 488 q 1050 295 1086 386 q 949 135 1014 204 q 792 24 883 65 q 589 -17 700 -17 q 387 24 478 -17 q 231 133 296 64 q 130 292 165 201 q 94 485 94 383 q 131 677 94 586 q 232 838 167 768 q 389 948 297 907 q 592 989 481 989 q 794 949 703 989 q 950 840 885 908 q 1051 680 1015 771 q 1086 488 1086 589 m 972 485 q 944 642 972 568 q 864 769 915 715 q 742 856 813 824 q 589 888 672 888 q 435 856 506 888 q 315 771 365 825 q 237 644 265 717 q 208 488 208 571 q 237 331 208 404 q 317 203 265 257 q 438 117 368 149 q 592 85 508 85 q 745 116 675 85 q 865 201 815 147 q 944 328 915 256 q 972 485 972 401 "},"P":{"ha":928,"x_min":138,"x_max":865,"o":"m 865 663 q 835 524 865 583 q 752 424 804 464 q 631 363 700 383 q 483 343 561 343 l 247 343 l 247 0 l 138 0 l 138 972 l 501 972 q 651 951 583 972 q 766 890 718 929 q 840 792 814 850 q 865 663 865 735 m 754 658 q 683 817 754 764 q 493 871 611 871 l 247 871 l 247 443 l 488 443 q 597 458 547 443 q 681 502 646 474 q 735 570 717 531 q 754 658 754 610 "},"Q":{"ha":1181,"x_min":94,"x_max":1099,"o":"m 969 160 l 1099 53 l 1024 -29 l 896 88 q 757 11 833 39 q 589 -17 681 -17 q 387 24 478 -17 q 231 133 296 64 q 130 292 165 201 q 94 485 94 383 q 131 677 94 586 q 232 838 167 768 q 389 948 297 907 q 592 989 481 989 q 794 949 703 989 q 950 840 885 908 q 1051 680 1015 771 q 1086 488 1086 589 q 1056 311 1086 396 q 969 160 1026 226 m 815 158 l 635 313 l 708 394 l 888 232 q 950 348 928 283 q 972 485 972 413 q 944 642 972 568 q 864 769 915 715 q 742 856 813 824 q 589 888 672 888 q 435 856 506 888 q 315 771 365 825 q 237 644 265 717 q 208 488 208 571 q 237 331 208 404 q 317 203 265 257 q 438 117 368 149 q 592 85 508 85 q 714 104 657 85 q 815 158 771 124 "},"R":{"ha":1004,"x_min":138,"x_max":942,"o":"m 942 0 l 807 0 l 525 378 l 247 378 l 247 0 l 138 0 l 138 972 l 556 972 q 701 951 636 972 q 811 892 765 931 q 882 801 857 854 q 907 682 907 747 q 888 573 907 621 q 833 490 868 525 q 749 431 797 454 q 643 397 700 407 l 942 0 m 796 678 q 731 820 796 769 q 547 871 665 871 l 247 871 l 247 476 l 546 476 q 646 490 600 476 q 725 530 692 504 q 777 593 758 556 q 796 678 796 631 "},"S":{"ha":889,"x_min":74,"x_max":803,"o":"m 222 729 q 233 667 222 694 q 274 616 244 639 q 354 574 303 593 q 486 539 406 556 q 726 439 649 503 q 803 263 803 375 q 778 149 803 200 q 709 61 753 97 q 604 6 665 25 q 471 -14 543 -14 q 258 24 354 -14 q 74 142 161 63 l 142 222 q 296 119 218 153 q 475 85 374 85 q 633 131 574 85 q 692 251 692 176 q 681 313 692 286 q 642 363 669 340 q 565 403 614 385 q 439 438 515 421 q 294 479 356 456 q 192 536 232 503 q 132 614 151 569 q 113 719 113 658 q 136 826 113 778 q 203 910 160 875 q 304 966 246 946 q 432 986 363 986 q 619 956 539 986 q 774 867 699 926 l 710 782 q 573 863 642 838 q 429 888 504 888 q 344 875 382 888 q 278 842 306 863 q 237 792 251 821 q 222 729 222 763 "},"T":{"ha":900,"x_min":68,"x_max":832,"o":"m 506 871 l 506 0 l 394 0 l 394 871 l 68 871 l 68 972 l 832 972 l 832 871 l 506 871 "},"U":{"ha":1054,"x_min":122,"x_max":932,"o":"m 932 972 l 932 415 q 903 228 932 308 q 820 93 874 147 q 692 12 767 39 q 526 -15 618 -15 q 362 12 436 -15 q 234 92 288 39 q 151 225 181 146 q 122 407 122 304 l 122 972 l 232 972 l 232 414 q 310 171 232 256 q 529 86 389 86 q 743 167 664 86 q 822 407 822 247 l 822 972 l 932 972 "},"V":{"ha":1042,"x_min":54,"x_max":988,"o":"m 522 135 l 869 972 l 988 972 l 569 -7 l 472 -7 l 54 972 l 176 972 l 522 135 "},"W":{"ha":1538,"x_min":63,"x_max":1476,"o":"m 460 163 l 726 975 l 817 975 l 1083 163 l 1361 972 l 1476 972 l 1129 -7 l 1036 -7 l 769 782 l 501 -7 l 410 -7 l 63 972 l 182 972 l 460 163 "},"X":{"ha":1007,"x_min":64,"x_max":943,"o":"m 943 0 l 813 0 l 501 418 l 190 0 l 64 0 l 438 496 l 78 972 l 207 972 l 506 575 l 801 972 l 929 972 l 569 497 l 943 0 "},"Y":{"ha":994,"x_min":38,"x_max":957,"o":"m 553 386 l 553 0 l 442 0 l 442 385 l 38 972 l 171 972 l 499 486 l 829 972 l 957 972 l 553 386 "},"Z":{"ha":963,"x_min":93,"x_max":872,"o":"m 722 874 l 114 874 l 114 972 l 872 972 l 872 899 l 242 99 l 872 99 l 872 0 l 93 0 l 93 74 l 722 874 "},"[":{"ha":610,"x_min":131,"x_max":528,"o":"m 528 972 l 528 889 l 232 889 l 232 -97 l 528 -97 l 528 -181 l 131 -181 l 131 972 l 528 972 "},"\\":{"ha":706,"x_min":-8,"x_max":735,"o":"m 90 1108 l 735 -178 l 636 -178 l -8 1108 l 90 1108 "},"]":{"ha":610,"x_min":82,"x_max":479,"o":"m 82 972 l 479 972 l 479 -181 l 82 -181 l 82 -97 l 379 -97 l 379 889 l 82 889 l 82 972 "},"^":{"ha":694,"x_min":90,"x_max":604,"o":"m 346 899 l 182 685 l 90 685 l 306 975 l 389 975 l 604 685 l 510 685 l 346 899 "},"_":{"ha":833,"x_min":-3,"x_max":836,"o":"m -3 -135 l 836 -135 l 836 -222 l -3 -222 l -3 -135 "},"`":{"ha":694,"x_min":200,"x_max":443,"o":"m 357 826 l 200 976 l 311 1028 l 443 826 l 357 826 "},"a":{"ha":804,"x_min":65,"x_max":696,"o":"m 379 633 q 263 619 315 633 q 161 581 211 604 l 129 668 q 250 712 189 696 q 390 728 311 728 q 617 655 538 728 q 696 439 696 582 l 696 0 l 593 0 l 593 108 q 492 22 556 60 q 333 -15 429 -15 q 235 -1 283 -15 q 149 41 188 13 q 88 111 111 69 q 65 210 65 153 q 88 310 65 267 q 151 383 110 354 q 248 428 192 413 q 372 443 304 443 q 493 435 442 443 q 593 413 544 426 l 593 438 q 537 584 593 535 q 379 633 481 633 m 383 364 q 228 324 282 364 q 174 214 174 283 q 188 153 174 179 q 228 108 203 126 q 285 79 253 89 q 354 69 318 69 q 448 84 404 69 q 524 124 492 99 q 576 185 557 150 q 594 264 594 221 l 594 333 q 502 354 554 344 q 383 364 450 364 "},"b":{"ha":922,"x_min":119,"x_max":844,"o":"m 844 360 q 815 201 844 271 q 738 84 786 132 q 628 10 690 36 q 501 -15 567 -15 q 410 -3 451 -15 q 335 31 368 10 q 274 79 301 51 q 226 138 247 107 l 226 0 l 119 0 l 119 1014 l 226 1014 l 226 574 q 276 635 249 606 q 336 685 303 664 q 410 720 369 707 q 501 733 451 733 q 627 708 565 733 q 738 635 689 683 q 815 518 786 588 q 844 360 844 449 m 735 358 q 715 474 735 422 q 660 562 694 525 q 579 618 625 599 q 482 638 533 638 q 385 617 432 638 q 302 561 339 597 q 244 474 265 525 q 222 360 222 422 q 244 245 222 297 q 302 157 265 193 q 385 101 339 121 q 482 81 432 81 q 580 99 533 81 q 660 153 626 118 q 715 241 694 189 q 735 358 735 293 "},"c":{"ha":793,"x_min":75,"x_max":736,"o":"m 736 122 q 613 22 682 61 q 443 -17 544 -17 q 297 13 364 -17 q 180 94 229 43 q 103 213 131 144 q 75 357 75 281 q 103 502 75 433 q 180 622 131 571 q 297 703 229 674 q 443 733 364 733 q 536 724 494 733 q 613 697 578 714 q 676 656 647 679 q 731 606 706 632 l 660 531 q 566 607 617 575 q 442 639 515 639 q 340 617 388 639 q 258 558 293 596 q 204 469 224 519 q 185 360 185 418 q 205 250 185 301 q 260 160 225 199 q 344 101 296 122 q 449 79 392 79 q 572 110 518 79 q 668 186 625 140 l 736 122 "},"d":{"ha":922,"x_min":78,"x_max":803,"o":"m 803 0 l 696 0 l 696 144 q 647 83 674 113 q 586 32 619 54 q 512 -3 553 10 q 421 -15 471 -15 q 294 10 356 -15 q 185 83 233 35 q 107 200 136 131 q 78 358 78 269 q 107 517 78 447 q 185 634 136 586 q 294 708 233 682 q 421 733 356 733 q 513 721 471 733 q 588 688 554 708 q 648 639 621 667 q 696 581 675 611 l 696 1014 l 803 1014 l 803 0 m 700 360 q 678 474 700 422 q 620 561 657 525 q 537 617 583 597 q 440 638 490 638 q 342 619 388 638 q 262 565 296 600 q 208 477 228 529 q 188 360 188 425 q 208 244 188 296 q 263 156 228 193 q 343 100 297 119 q 440 81 389 81 q 537 101 490 81 q 620 157 583 121 q 678 245 657 193 q 700 360 700 297 "},"e":{"ha":822,"x_min":75,"x_max":754,"o":"m 183 319 q 211 216 189 261 q 268 140 233 171 q 346 92 303 108 q 436 76 389 76 q 565 104 511 76 q 663 178 618 132 l 729 118 q 606 20 675 57 q 433 -17 536 -17 q 294 10 360 -17 q 181 87 229 38 q 103 206 132 136 q 75 358 75 275 q 101 505 75 436 q 172 624 126 574 q 281 704 218 675 q 419 733 344 733 q 561 703 499 733 q 667 622 624 674 q 732 501 710 571 q 754 353 754 432 q 754 338 754 346 q 753 319 754 329 l 183 319 m 183 399 l 646 399 q 626 492 642 447 q 581 569 610 536 q 512 623 553 603 q 417 643 471 643 q 329 624 369 643 q 258 573 289 606 q 208 496 228 540 q 183 399 189 451 "},"f":{"ha":510,"x_min":61,"x_max":494,"o":"m 265 715 l 493 715 l 493 624 l 267 624 l 267 0 l 160 0 l 160 624 l 61 624 l 61 717 l 160 717 l 160 779 q 216 958 160 897 q 376 1019 272 1019 q 441 1015 414 1019 q 494 1001 468 1011 l 494 908 q 442 922 465 917 q 390 926 418 926 q 265 774 265 926 l 265 715 "},"g":{"ha":922,"x_min":78,"x_max":803,"o":"m 803 125 q 777 -28 803 38 q 703 -137 751 -93 q 588 -203 656 -181 q 438 -225 521 -225 q 265 -200 347 -225 q 111 -125 183 -175 l 160 -42 q 290 -110 222 -86 q 436 -133 358 -133 q 626 -69 556 -133 q 697 122 697 -4 l 697 207 q 582 100 650 144 q 415 56 514 56 q 290 78 350 56 q 182 145 229 101 q 106 251 135 189 q 78 393 78 314 q 106 535 78 472 q 182 642 135 599 q 290 710 229 686 q 415 733 351 733 q 508 722 465 733 q 584 690 550 710 q 646 644 618 671 q 696 589 674 618 l 696 718 l 803 718 l 803 125 m 700 394 q 678 495 700 450 q 619 572 656 540 q 535 622 582 604 q 436 639 488 639 q 340 622 385 639 q 260 574 294 606 q 207 497 226 542 q 188 396 188 451 q 208 295 188 340 q 262 217 228 250 q 341 167 296 185 q 436 150 386 150 q 535 167 488 150 q 619 217 582 185 q 678 294 656 249 q 700 394 700 339 "},"h":{"ha":856,"x_min":119,"x_max":747,"o":"m 226 411 l 226 0 l 119 0 l 119 1014 l 226 1014 l 226 593 q 321 692 263 651 q 472 733 379 733 q 588 713 538 733 q 674 653 639 692 q 728 563 710 615 q 747 446 747 510 l 747 0 l 640 0 l 640 419 q 589 578 640 519 q 442 636 538 636 q 356 620 396 636 q 288 574 317 604 q 242 503 258 544 q 226 411 226 461 "},"i":{"ha":365,"x_min":122,"x_max":244,"o":"m 244 875 l 122 875 l 122 993 l 244 993 l 244 875 m 236 0 l 129 0 l 129 718 l 236 718 l 236 0 "},"j":{"ha":365,"x_min":-6,"x_max":244,"o":"m 244 875 l 122 875 l 122 993 l 244 993 l 244 875 m 129 718 l 236 718 l 236 -42 q 190 -182 236 -137 q 61 -226 143 -226 q 27 -225 42 -226 q -6 -219 13 -224 l -6 -132 q 22 -135 7 -135 q 47 -136 36 -136 q 106 -113 83 -136 q 129 -40 129 -90 l 129 718 "},"k":{"ha":790,"x_min":119,"x_max":757,"o":"m 446 410 l 757 0 l 629 0 l 372 335 l 226 188 l 226 0 l 119 0 l 119 1014 l 226 1014 l 226 314 l 614 718 l 747 718 l 446 410 "},"l":{"ha":365,"x_min":129,"x_max":236,"o":"m 236 0 l 129 0 l 129 1014 l 236 1014 l 236 0 "},"m":{"ha":1321,"x_min":119,"x_max":1208,"o":"m 689 590 q 733 646 708 619 q 788 692 757 672 q 856 722 818 711 q 942 733 894 733 q 1138 656 1067 733 q 1208 444 1208 579 l 1208 0 l 1101 0 l 1101 419 q 1052 580 1101 524 q 915 636 1003 636 q 839 622 875 636 q 776 578 803 607 q 733 508 749 550 q 717 414 717 467 l 717 0 l 611 0 l 611 422 q 562 580 611 524 q 426 636 513 636 q 347 619 383 636 q 284 572 311 603 q 242 501 257 542 q 226 410 226 460 l 226 0 l 119 0 l 119 718 l 226 718 l 226 597 q 266 649 244 624 q 315 692 288 674 q 378 722 343 711 q 458 733 413 733 q 603 692 546 733 q 689 590 660 651 "},"n":{"ha":856,"x_min":119,"x_max":747,"o":"m 226 411 l 226 0 l 119 0 l 119 718 l 226 718 l 226 593 q 321 692 263 651 q 472 733 379 733 q 588 713 538 733 q 674 653 639 692 q 728 563 710 615 q 747 446 747 510 l 747 0 l 640 0 l 640 419 q 589 578 640 519 q 442 636 538 636 q 356 620 396 636 q 288 574 317 604 q 242 503 258 544 q 226 411 226 461 "},"o":{"ha":897,"x_min":75,"x_max":824,"o":"m 824 360 q 795 215 824 283 q 717 94 767 146 q 597 13 667 43 q 447 -17 528 -17 q 299 13 367 -17 q 181 94 231 43 q 103 213 131 144 q 75 357 75 281 q 103 502 75 433 q 181 622 131 571 q 299 703 231 674 q 450 733 368 733 q 599 703 531 733 q 718 623 668 674 q 796 504 768 572 q 824 360 824 436 m 714 357 q 694 467 714 415 q 638 556 674 518 q 553 617 601 594 q 447 639 504 639 q 340 617 389 639 q 258 558 292 596 q 204 469 224 519 q 185 360 185 418 q 205 250 185 301 q 260 161 225 199 q 344 101 296 124 q 450 79 393 79 q 557 101 508 79 q 640 160 606 122 q 694 248 675 197 q 714 357 714 299 "},"p":{"ha":922,"x_min":119,"x_max":844,"o":"m 844 360 q 815 201 844 271 q 738 84 786 132 q 628 10 690 36 q 501 -15 567 -15 q 410 -3 451 -15 q 335 31 368 10 q 274 79 301 51 q 226 138 247 107 l 226 -222 l 119 -222 l 119 718 l 226 718 l 226 574 q 276 635 249 606 q 336 685 303 664 q 410 720 369 707 q 501 733 451 733 q 627 708 565 733 q 738 635 689 683 q 815 518 786 588 q 844 360 844 449 m 735 358 q 715 474 735 422 q 660 562 694 525 q 579 618 625 599 q 482 638 533 638 q 385 617 432 638 q 302 561 339 597 q 244 474 265 525 q 222 360 222 422 q 244 245 222 297 q 302 157 265 193 q 385 101 339 121 q 482 81 432 81 q 580 99 533 81 q 660 153 626 118 q 715 241 694 189 q 735 358 735 293 "},"q":{"ha":922,"x_min":78,"x_max":803,"o":"m 803 -222 l 696 -222 l 696 144 q 647 83 674 113 q 586 32 619 54 q 512 -3 553 10 q 421 -15 471 -15 q 294 10 356 -15 q 185 83 233 35 q 107 200 136 131 q 78 358 78 269 q 107 517 78 447 q 185 634 136 586 q 294 708 233 682 q 421 733 356 733 q 513 721 471 733 q 588 688 554 708 q 648 639 621 667 q 696 581 675 611 l 696 718 l 803 718 l 803 -222 m 700 360 q 678 474 700 422 q 620 561 657 525 q 537 617 583 597 q 440 638 490 638 q 342 619 388 638 q 262 565 296 600 q 208 477 228 529 q 188 360 188 425 q 208 244 188 296 q 263 156 228 193 q 343 100 297 119 q 440 81 389 81 q 537 101 490 81 q 620 157 583 121 q 678 245 657 193 q 700 360 700 297 "},"r":{"ha":563,"x_min":119,"x_max":519,"o":"m 226 286 l 226 0 l 119 0 l 119 718 l 226 718 l 226 531 q 275 613 246 575 q 342 677 304 650 q 424 718 379 704 q 519 731 468 732 l 519 615 l 511 615 q 401 594 453 615 q 310 532 349 574 q 249 428 271 490 q 226 286 226 367 "},"s":{"ha":692,"x_min":60,"x_max":613,"o":"m 613 201 q 592 110 613 150 q 538 43 572 71 q 458 1 504 15 q 357 -14 411 -14 q 200 15 279 -14 q 60 92 121 43 l 114 168 q 235 100 172 124 q 363 76 299 76 q 469 107 428 76 q 511 190 511 138 l 511 193 q 497 239 511 219 q 457 273 482 258 q 399 299 432 288 q 332 319 367 310 q 248 347 290 332 q 172 383 206 361 q 116 439 138 406 q 94 522 94 472 l 94 525 q 113 609 94 571 q 163 674 131 647 q 241 716 196 701 q 339 731 286 731 q 474 709 406 731 q 597 651 542 688 l 549 571 q 444 622 499 603 q 336 640 389 640 q 235 610 272 640 q 197 536 197 581 l 197 533 q 213 490 197 508 q 253 457 228 471 q 313 432 279 443 q 382 410 346 421 q 465 382 424 397 q 539 343 506 367 q 592 286 572 319 q 613 204 613 253 l 613 201 "},"t":{"ha":561,"x_min":57,"x_max":492,"o":"m 264 624 l 264 204 q 297 111 264 138 q 385 85 331 85 q 437 90 413 85 q 489 110 461 96 l 489 18 q 430 -5 461 3 q 360 -12 399 -12 q 279 -1 317 -12 q 215 34 242 10 q 172 97 188 58 q 157 190 157 136 l 157 624 l 57 624 l 57 718 l 157 718 l 157 935 l 264 935 l 264 718 l 492 718 l 492 624 l 264 624 "},"u":{"ha":856,"x_min":108,"x_max":735,"o":"m 629 307 l 629 718 l 735 718 l 735 0 l 629 0 l 629 125 q 535 26 593 67 q 383 -15 476 -15 q 267 6 318 -15 q 181 65 217 26 q 127 156 146 103 q 108 272 108 208 l 108 718 l 215 718 l 215 299 q 267 140 215 199 q 414 82 318 82 q 499 98 460 82 q 567 144 539 114 q 613 215 596 174 q 629 307 629 257 "},"v":{"ha":815,"x_min":49,"x_max":767,"o":"m 408 122 l 651 718 l 767 718 l 454 -6 l 360 -6 l 49 718 l 167 718 l 408 122 "},"w":{"ha":1196,"x_min":58,"x_max":1138,"o":"m 643 721 l 838 142 l 1026 718 l 1138 718 l 885 -6 l 792 -6 l 599 561 l 404 -6 l 310 -6 l 58 718 l 172 718 l 361 142 l 554 721 l 643 721 "},"x":{"ha":797,"x_min":54,"x_max":743,"o":"m 460 368 l 743 0 l 619 0 l 397 293 l 174 0 l 54 0 l 336 365 l 65 718 l 188 718 l 400 440 l 613 718 l 732 718 l 460 368 "},"y":{"ha":821,"x_min":47,"x_max":771,"o":"m 771 718 l 469 -24 q 367 -181 424 -135 q 231 -226 311 -226 q 150 -217 186 -226 q 78 -190 114 -208 l 114 -106 q 166 -126 140 -119 q 226 -132 192 -132 q 308 -103 275 -132 q 374 3 342 -74 l 47 718 l 165 718 l 426 119 l 657 718 l 771 718 "},"z":{"ha":772,"x_min":78,"x_max":700,"o":"m 554 628 l 94 628 l 94 718 l 700 718 l 700 650 l 222 90 l 700 90 l 700 0 l 78 0 l 78 68 l 554 628 "},"{":{"ha":671,"x_min":78,"x_max":594,"o":"m 594 922 q 478 883 521 903 q 413 838 436 864 q 384 779 390 813 q 378 699 378 746 q 378 647 378 678 q 379 594 379 617 q 340 463 379 507 q 235 399 301 419 q 297 372 269 388 q 342 333 324 356 q 369 278 360 310 q 379 203 379 246 q 378 150 379 181 q 378 99 378 119 q 384 18 378 51 q 413 -41 390 -15 q 478 -87 436 -67 q 594 -125 521 -107 l 578 -196 q 425 -153 483 -179 q 333 -93 367 -128 q 288 -14 300 -58 q 276 85 276 31 q 276 107 276 93 q 277 136 276 121 q 278 167 278 151 q 278 190 278 182 q 242 314 278 271 q 114 357 207 357 l 78 357 l 78 440 l 114 440 q 242 483 207 440 q 278 607 278 525 q 278 629 278 615 q 277 660 278 644 q 276 690 276 676 q 276 713 276 704 q 288 811 276 767 q 333 890 300 856 q 425 951 367 925 q 578 993 483 976 l 594 922 "},"|":{"ha":421,"x_min":165,"x_max":256,"o":"m 256 -178 l 165 -178 l 165 1108 l 256 1108 l 256 -178 "},"}":{"ha":671,"x_min":75,"x_max":592,"o":"m 75 -125 q 192 -87 149 -107 q 258 -41 235 -67 q 287 18 281 -15 q 293 99 293 51 q 292 150 293 119 q 292 203 292 181 q 331 334 292 290 q 436 399 369 378 q 329 464 367 421 q 292 594 292 507 q 292 647 292 617 q 293 699 293 678 q 287 779 293 746 q 258 838 281 813 q 192 883 235 864 q 75 922 149 903 l 93 993 q 245 951 186 976 q 338 890 304 925 q 383 811 371 856 q 394 713 394 767 q 394 690 394 704 q 394 660 394 676 q 393 629 393 644 q 393 607 393 615 q 428 483 393 525 q 556 440 463 440 l 592 440 l 592 357 l 556 357 q 428 315 463 357 q 393 190 393 272 q 393 167 393 182 q 394 136 393 151 q 394 107 394 121 q 394 85 394 93 q 383 -14 394 31 q 338 -93 371 -58 q 245 -153 304 -128 q 93 -196 186 -179 l 75 -125 "},"~":{"ha":657,"x_min":101,"x_max":556,"o":"m 556 489 q 505 376 535 410 q 425 342 475 342 q 376 351 401 342 q 326 370 351 360 q 279 390 301 381 q 239 399 257 399 q 197 383 211 399 q 167 329 182 368 l 101 347 q 153 460 122 426 q 233 494 183 494 q 281 485 256 494 q 331 466 307 476 q 378 447 356 456 q 419 438 401 438 q 462 453 447 438 q 492 507 476 468 l 556 489 "},"Ä":{"ha":1097,"x_min":54,"x_max":1043,"o":"m 600 979 l 1043 0 l 925 0 l 811 257 l 282 257 l 167 0 l 54 0 l 497 979 l 600 979 m 768 356 l 547 851 l 325 356 l 768 356 m 733 1058 l 608 1058 l 608 1190 l 733 1190 l 733 1058 m 489 1058 l 364 1058 l 364 1190 l 489 1190 l 489 1058 "},"Å":{"ha":1097,"x_min":54,"x_max":1043,"o":"m 481 944 q 426 994 447 963 q 404 1065 404 1025 q 416 1119 404 1094 q 448 1163 428 1144 q 494 1193 468 1182 q 549 1204 519 1204 q 603 1193 578 1204 q 649 1163 629 1182 q 681 1119 669 1144 q 693 1065 693 1094 q 672 994 693 1025 q 617 944 650 963 l 1043 0 l 925 0 l 811 257 l 282 257 l 167 0 l 54 0 l 481 944 m 635 1065 q 610 1126 635 1101 q 549 1151 585 1151 q 488 1126 513 1151 q 463 1065 463 1101 q 488 1004 463 1029 q 549 979 513 979 q 610 1004 585 979 q 635 1065 635 1029 m 768 356 l 547 851 l 325 356 l 768 356 "},"Ç":{"ha":1025,"x_min":94,"x_max":971,"o":"m 515 -12 q 346 42 424 0 q 213 151 268 85 q 126 302 157 217 q 94 485 94 388 q 131 681 94 589 q 233 841 168 772 q 389 949 299 910 q 586 989 479 989 q 706 978 653 989 q 806 947 760 967 q 890 898 851 926 q 965 835 929 869 l 890 754 q 756 850 828 813 q 585 888 685 888 q 435 857 504 888 q 316 772 367 826 q 237 645 265 718 q 208 488 208 572 q 237 329 208 403 q 316 201 265 256 q 435 116 367 147 q 585 85 504 85 q 757 122 685 85 q 899 225 829 158 l 971 154 q 896 87 935 117 q 813 35 857 57 q 717 -1 768 13 q 604 -17 665 -14 l 513 -215 l 408 -168 l 515 -12 "},"É":{"ha":931,"x_min":138,"x_max":847,"o":"m 840 972 l 840 872 l 247 872 l 247 540 l 778 540 l 778 440 l 247 440 l 247 100 l 847 100 l 847 0 l 138 0 l 138 972 l 840 972 m 499 1058 l 413 1058 l 544 1260 l 656 1208 l 499 1058 "},"Ñ":{"ha":1097,"x_min":138,"x_max":960,"o":"m 853 193 l 853 972 l 960 972 l 960 0 l 872 0 l 244 797 l 244 0 l 138 0 l 138 972 l 240 972 l 853 193 m 776 1204 q 725 1092 756 1125 q 644 1058 694 1058 q 596 1067 621 1058 q 546 1085 571 1075 q 499 1105 521 1096 q 458 1114 476 1114 q 416 1099 431 1114 q 386 1046 401 1083 l 321 1064 q 372 1176 342 1143 q 453 1210 403 1210 q 501 1201 476 1210 q 551 1181 526 1192 q 599 1163 576 1171 q 639 1154 621 1154 q 681 1169 667 1154 q 711 1222 696 1185 l 776 1204 "},"Ö":{"ha":1181,"x_min":94,"x_max":1086,"o":"m 1086 488 q 1050 295 1086 386 q 949 135 1014 204 q 792 24 883 65 q 589 -17 700 -17 q 387 24 478 -17 q 231 133 296 64 q 130 292 165 201 q 94 485 94 383 q 131 677 94 586 q 232 838 167 768 q 389 948 297 907 q 592 989 481 989 q 794 949 703 989 q 950 840 885 908 q 1051 680 1015 771 q 1086 488 1086 589 m 972 485 q 944 642 972 568 q 864 769 915 715 q 742 856 813 824 q 589 888 672 888 q 435 856 506 888 q 315 771 365 825 q 237 644 265 717 q 208 488 208 571 q 237 331 208 404 q 317 203 265 257 q 438 117 368 149 q 592 85 508 85 q 745 116 675 85 q 865 201 815 147 q 944 328 915 256 q 972 485 972 401 m 775 1058 l 650 1058 l 650 1190 l 775 1190 l 775 1058 m 531 1058 l 406 1058 l 406 1190 l 531 1190 l 531 1058 "},"Ü":{"ha":1054,"x_min":122,"x_max":932,"o":"m 932 972 l 932 415 q 903 228 932 308 q 820 93 874 147 q 692 12 767 39 q 526 -15 618 -15 q 362 12 436 -15 q 234 92 288 39 q 151 225 181 146 q 122 407 122 304 l 122 972 l 232 972 l 232 414 q 310 171 232 256 q 529 86 389 86 q 743 167 664 86 q 822 407 822 247 l 822 972 l 932 972 m 711 1054 l 586 1054 l 586 1186 l 711 1186 l 711 1054 m 467 1054 l 342 1054 l 342 1186 l 467 1186 l 467 1054 "},"á":{"ha":804,"x_min":65,"x_max":696,"o":"m 379 633 q 263 619 315 633 q 161 581 211 604 l 129 668 q 250 712 189 696 q 390 728 311 728 q 617 655 538 728 q 696 439 696 582 l 696 0 l 593 0 l 593 108 q 492 22 556 60 q 333 -15 429 -15 q 235 -1 283 -15 q 149 41 188 13 q 88 111 111 69 q 65 210 65 153 q 88 310 65 267 q 151 383 110 354 q 248 428 192 413 q 372 443 304 443 q 493 435 442 443 q 593 413 544 426 l 593 438 q 537 584 593 535 q 379 633 481 633 m 383 364 q 228 324 282 364 q 174 214 174 283 q 188 153 174 179 q 228 108 203 126 q 285 79 253 89 q 354 69 318 69 q 448 84 404 69 q 524 124 492 99 q 576 185 557 150 q 594 264 594 221 l 594 333 q 502 354 554 344 q 383 364 450 364 m 431 826 l 344 826 l 476 1028 l 588 976 l 431 826 "},"à":{"ha":804,"x_min":65,"x_max":696,"o":"m 379 633 q 263 619 315 633 q 161 581 211 604 l 129 668 q 250 712 189 696 q 390 728 311 728 q 617 655 538 728 q 696 439 696 582 l 696 0 l 593 0 l 593 108 q 492 22 556 60 q 333 -15 429 -15 q 235 -1 283 -15 q 149 41 188 13 q 88 111 111 69 q 65 210 65 153 q 88 310 65 267 q 151 383 110 354 q 248 428 192 413 q 372 443 304 443 q 493 435 442 443 q 593 413 544 426 l 593 438 q 537 584 593 535 q 379 633 481 633 m 383 364 q 228 324 282 364 q 174 214 174 283 q 188 153 174 179 q 228 108 203 126 q 285 79 253 89 q 354 69 318 69 q 448 84 404 69 q 524 124 492 99 q 576 185 557 150 q 594 264 594 221 l 594 333 q 502 354 554 344 q 383 364 450 364 m 363 826 l 206 976 l 317 1028 l 449 826 l 363 826 "},"â":{"ha":804,"x_min":65,"x_max":696,"o":"m 379 633 q 263 619 315 633 q 161 581 211 604 l 129 668 q 250 712 189 696 q 390 728 311 728 q 617 655 538 728 q 696 439 696 582 l 696 0 l 593 0 l 593 108 q 492 22 556 60 q 333 -15 429 -15 q 235 -1 283 -15 q 149 41 188 13 q 88 111 111 69 q 65 210 65 153 q 88 310 65 267 q 151 383 110 354 q 248 428 192 413 q 372 443 304 443 q 493 435 442 443 q 593 413 544 426 l 593 438 q 537 584 593 535 q 379 633 481 633 m 383 364 q 228 324 282 364 q 174 214 174 283 q 188 153 174 179 q 228 108 203 126 q 285 79 253 89 q 354 69 318 69 q 448 84 404 69 q 524 124 492 99 q 576 185 557 150 q 594 264 594 221 l 594 333 q 502 354 554 344 q 383 364 450 364 m 403 919 l 299 826 l 210 826 l 357 1008 l 451 1008 l 599 826 l 507 826 l 403 919 "},"ä":{"ha":804,"x_min":65,"x_max":696,"o":"m 379 633 q 263 619 315 633 q 161 581 211 604 l 129 668 q 250 712 189 696 q 390 728 311 728 q 617 655 538 728 q 696 439 696 582 l 696 0 l 593 0 l 593 108 q 492 22 556 60 q 333 -15 429 -15 q 235 -1 283 -15 q 149 41 188 13 q 88 111 111 69 q 65 210 65 153 q 88 310 65 267 q 151 383 110 354 q 248 428 192 413 q 372 443 304 443 q 493 435 442 443 q 593 413 544 426 l 593 438 q 537 584 593 535 q 379 633 481 633 m 383 364 q 228 324 282 364 q 174 214 174 283 q 188 153 174 179 q 228 108 203 126 q 285 79 253 89 q 354 69 318 69 q 448 84 404 69 q 524 124 492 99 q 576 185 557 150 q 594 264 594 221 l 594 333 q 502 354 554 344 q 383 364 450 364 m 589 826 l 464 826 l 464 958 l 589 958 l 589 826 m 344 826 l 219 826 l 219 958 l 344 958 l 344 826 "},"ã":{"ha":804,"x_min":65,"x_max":696,"o":"m 379 633 q 263 619 315 633 q 161 581 211 604 l 129 668 q 250 712 189 696 q 390 728 311 728 q 617 655 538 728 q 696 439 696 582 l 696 0 l 593 0 l 593 108 q 492 22 556 60 q 333 -15 429 -15 q 235 -1 283 -15 q 149 41 188 13 q 88 111 111 69 q 65 210 65 153 q 88 310 65 267 q 151 383 110 354 q 248 428 192 413 q 372 443 304 443 q 493 435 442 443 q 593 413 544 426 l 593 438 q 537 584 593 535 q 379 633 481 633 m 383 364 q 228 324 282 364 q 174 214 174 283 q 188 153 174 179 q 228 108 203 126 q 285 79 253 89 q 354 69 318 69 q 448 84 404 69 q 524 124 492 99 q 576 185 557 150 q 594 264 594 221 l 594 333 q 502 354 554 344 q 383 364 450 364 m 633 972 q 582 860 613 893 q 501 826 551 826 q 453 835 478 826 q 403 853 428 843 q 356 873 378 864 q 315 882 333 882 q 273 867 288 882 q 243 814 258 851 l 178 832 q 229 944 199 911 q 310 978 260 978 q 358 969 333 978 q 408 949 383 960 q 456 931 433 939 q 496 922 478 922 q 538 938 524 922 q 568 990 553 953 l 633 972 "},"å":{"ha":804,"x_min":65,"x_max":696,"o":"m 379 633 q 263 619 315 633 q 161 581 211 604 l 129 668 q 250 712 189 696 q 390 728 311 728 q 617 655 538 728 q 696 439 696 582 l 696 0 l 593 0 l 593 108 q 492 22 556 60 q 333 -15 429 -15 q 235 -1 283 -15 q 149 41 188 13 q 88 111 111 69 q 65 210 65 153 q 88 310 65 267 q 151 383 110 354 q 248 428 192 413 q 372 443 304 443 q 493 435 442 443 q 593 413 544 426 l 593 438 q 537 584 593 535 q 379 633 481 633 m 383 364 q 228 324 282 364 q 174 214 174 283 q 188 153 174 179 q 228 108 203 126 q 285 79 253 89 q 354 69 318 69 q 448 84 404 69 q 524 124 492 99 q 576 185 557 150 q 594 264 594 221 l 594 333 q 502 354 554 344 q 383 364 450 364 m 549 963 q 537 908 549 933 q 505 865 525 883 q 459 835 485 846 q 404 824 433 824 q 349 835 375 824 q 303 865 324 846 q 272 908 283 883 q 260 963 260 933 q 272 1017 260 992 q 303 1060 283 1042 q 349 1090 324 1079 q 404 1101 375 1101 q 459 1090 433 1101 q 505 1060 485 1079 q 537 1017 525 1042 q 549 963 549 992 m 490 963 q 465 1024 490 999 q 404 1049 440 1049 q 343 1024 368 1049 q 318 963 318 999 q 343 901 318 926 q 404 876 368 876 q 465 901 440 876 q 490 963 490 926 "},"ç":{"ha":793,"x_min":75,"x_max":736,"o":"m 376 -10 q 256 35 311 1 q 160 117 200 68 q 97 227 119 165 q 75 357 75 289 q 103 502 75 433 q 180 622 131 571 q 297 703 229 674 q 443 733 364 733 q 536 724 494 733 q 613 697 578 714 q 676 656 647 679 q 731 606 706 632 l 660 531 q 566 607 617 575 q 442 639 515 639 q 340 617 388 639 q 258 558 293 596 q 204 469 224 519 q 185 360 185 418 q 205 250 185 301 q 260 160 225 199 q 344 101 296 122 q 449 79 392 79 q 572 110 518 79 q 668 186 625 140 l 736 122 q 620 26 683 64 q 464 -17 557 -11 l 372 -215 l 268 -168 l 376 -10 "},"é":{"ha":822,"x_min":75,"x_max":754,"o":"m 183 319 q 211 216 189 261 q 268 140 233 171 q 346 92 303 108 q 436 76 389 76 q 565 104 511 76 q 663 178 618 132 l 729 118 q 606 20 675 57 q 433 -17 536 -17 q 294 10 360 -17 q 181 87 229 38 q 103 206 132 136 q 75 358 75 275 q 101 505 75 436 q 172 624 126 574 q 281 704 218 675 q 419 733 344 733 q 561 703 499 733 q 667 622 624 674 q 732 501 710 571 q 754 353 754 432 q 754 338 754 346 q 753 319 754 329 l 183 319 m 183 399 l 646 399 q 626 492 642 447 q 581 569 610 536 q 512 623 553 603 q 417 643 471 643 q 329 624 369 643 q 258 573 289 606 q 208 496 228 540 q 183 399 189 451 m 439 826 l 353 826 l 485 1028 l 596 976 l 439 826 "},"è":{"ha":822,"x_min":75,"x_max":754,"o":"m 183 319 q 211 216 189 261 q 268 140 233 171 q 346 92 303 108 q 436 76 389 76 q 565 104 511 76 q 663 178 618 132 l 729 118 q 606 20 675 57 q 433 -17 536 -17 q 294 10 360 -17 q 181 87 229 38 q 103 206 132 136 q 75 358 75 275 q 101 505 75 436 q 172 624 126 574 q 281 704 218 675 q 419 733 344 733 q 561 703 499 733 q 667 622 624 674 q 732 501 710 571 q 754 353 754 432 q 754 338 754 346 q 753 319 754 329 l 183 319 m 183 399 l 646 399 q 626 492 642 447 q 581 569 610 536 q 512 623 553 603 q 417 643 471 643 q 329 624 369 643 q 258 573 289 606 q 208 496 228 540 q 183 399 189 451 m 383 826 l 226 976 l 338 1028 l 469 826 l 383 826 "},"ê":{"ha":822,"x_min":75,"x_max":754,"o":"m 183 319 q 211 216 189 261 q 268 140 233 171 q 346 92 303 108 q 436 76 389 76 q 565 104 511 76 q 663 178 618 132 l 729 118 q 606 20 675 57 q 433 -17 536 -17 q 294 10 360 -17 q 181 87 229 38 q 103 206 132 136 q 75 358 75 275 q 101 505 75 436 q 172 624 126 574 q 281 704 218 675 q 419 733 344 733 q 561 703 499 733 q 667 622 624 674 q 732 501 710 571 q 754 353 754 432 q 754 338 754 346 q 753 319 754 329 l 183 319 m 183 399 l 646 399 q 626 492 642 447 q 581 569 610 536 q 512 623 553 603 q 417 643 471 643 q 329 624 369 643 q 258 573 289 606 q 208 496 228 540 q 183 399 189 451 m 414 919 l 310 826 l 221 826 l 368 1008 l 463 1008 l 610 826 l 518 826 l 414 919 "},"ë":{"ha":822,"x_min":75,"x_max":754,"o":"m 183 319 q 211 216 189 261 q 268 140 233 171 q 346 92 303 108 q 436 76 389 76 q 565 104 511 76 q 663 178 618 132 l 729 118 q 606 20 675 57 q 433 -17 536 -17 q 294 10 360 -17 q 181 87 229 38 q 103 206 132 136 q 75 358 75 275 q 101 505 75 436 q 172 624 126 574 q 281 704 218 675 q 419 733 344 733 q 561 703 499 733 q 667 622 624 674 q 732 501 710 571 q 754 353 754 432 q 754 338 754 346 q 753 319 754 329 l 183 319 m 183 399 l 646 399 q 626 492 642 447 q 581 569 610 536 q 512 623 553 603 q 417 643 471 643 q 329 624 369 643 q 258 573 289 606 q 208 496 228 540 q 183 399 189 451 m 600 826 l 475 826 l 475 958 l 600 958 l 600 826 m 356 826 l 231 826 l 231 958 l 356 958 l 356 826 "},"í":{"ha":365,"x_min":129,"x_max":383,"o":"m 236 0 l 129 0 l 129 718 l 236 718 l 236 0 m 226 826 l 140 826 l 272 1028 l 383 976 l 226 826 "},"ì":{"ha":365,"x_min":129,"x_max":374,"o":"m 236 0 l 129 0 l 129 718 l 236 718 l 236 0 m 288 826 l 131 976 l 242 1028 l 374 826 l 288 826 "},"î":{"ha":365,"x_min":129,"x_max":519,"o":"m 236 0 l 129 0 l 129 718 l 236 718 l 236 0 m 324 919 l 219 826 l 131 826 l 278 1008 l 372 1008 l 519 826 l 428 826 l 324 919 "},"ï":{"ha":365,"x_min":129,"x_max":500,"o":"m 236 0 l 129 0 l 129 718 l 236 718 l 236 0 m 500 826 l 375 826 l 375 958 l 500 958 l 500 826 m 256 826 l 131 826 l 131 958 l 256 958 l 256 826 "},"ñ":{"ha":856,"x_min":119,"x_max":747,"o":"m 226 411 l 226 0 l 119 0 l 119 718 l 226 718 l 226 593 q 321 692 263 651 q 472 733 379 733 q 588 713 538 733 q 674 653 639 692 q 728 563 710 615 q 747 446 747 510 l 747 0 l 640 0 l 640 419 q 589 578 640 519 q 442 636 538 636 q 356 620 396 636 q 288 574 317 604 q 242 503 258 544 q 226 411 226 461 m 661 972 q 610 860 640 893 q 529 826 579 826 q 481 835 506 826 q 431 853 456 843 q 383 873 406 864 q 343 882 361 882 q 301 867 315 882 q 271 814 286 851 l 206 832 q 257 944 226 911 q 338 978 288 978 q 386 969 361 978 q 436 949 411 960 q 483 931 461 939 q 524 922 506 922 q 566 938 551 922 q 596 990 581 953 l 661 972 "},"ó":{"ha":897,"x_min":75,"x_max":824,"o":"m 824 360 q 795 215 824 283 q 717 94 767 146 q 597 13 667 43 q 447 -17 528 -17 q 299 13 367 -17 q 181 94 231 43 q 103 213 131 144 q 75 357 75 281 q 103 502 75 433 q 181 622 131 571 q 299 703 231 674 q 450 733 368 733 q 599 703 531 733 q 718 623 668 674 q 796 504 768 572 q 824 360 824 436 m 714 357 q 694 467 714 415 q 638 556 674 518 q 553 617 601 594 q 447 639 504 639 q 340 617 389 639 q 258 558 292 596 q 204 469 224 519 q 185 360 185 418 q 205 250 185 301 q 260 161 225 199 q 344 101 296 124 q 450 79 393 79 q 557 101 508 79 q 640 160 606 122 q 694 248 675 197 q 714 357 714 299 m 493 826 l 407 826 l 539 1028 l 650 976 l 493 826 "},"ò":{"ha":897,"x_min":75,"x_max":824,"o":"m 824 360 q 795 215 824 283 q 717 94 767 146 q 597 13 667 43 q 447 -17 528 -17 q 299 13 367 -17 q 181 94 231 43 q 103 213 131 144 q 75 357 75 281 q 103 502 75 433 q 181 622 131 571 q 299 703 231 674 q 450 733 368 733 q 599 703 531 733 q 718 623 668 674 q 796 504 768 572 q 824 360 824 436 m 714 357 q 694 467 714 415 q 638 556 674 518 q 553 617 601 594 q 447 639 504 639 q 340 617 389 639 q 258 558 292 596 q 204 469 224 519 q 185 360 185 418 q 205 250 185 301 q 260 161 225 199 q 344 101 296 124 q 450 79 393 79 q 557 101 508 79 q 640 160 606 122 q 694 248 675 197 q 714 357 714 299 m 406 826 l 249 976 l 360 1028 l 492 826 l 406 826 "},"ô":{"ha":897,"x_min":75,"x_max":824,"o":"m 824 360 q 795 215 824 283 q 717 94 767 146 q 597 13 667 43 q 447 -17 528 -17 q 299 13 367 -17 q 181 94 231 43 q 103 213 131 144 q 75 357 75 281 q 103 502 75 433 q 181 622 131 571 q 299 703 231 674 q 450 733 368 733 q 599 703 531 733 q 718 623 668 674 q 796 504 768 572 q 824 360 824 436 m 714 357 q 694 467 714 415 q 638 556 674 518 q 553 617 601 594 q 447 639 504 639 q 340 617 389 639 q 258 558 292 596 q 204 469 224 519 q 185 360 185 418 q 205 250 185 301 q 260 161 225 199 q 344 101 296 124 q 450 79 393 79 q 557 101 508 79 q 640 160 606 122 q 694 248 675 197 q 714 357 714 299 m 447 919 l 343 826 l 254 826 l 401 1008 l 496 1008 l 643 826 l 551 826 l 447 919 "},"ö":{"ha":897,"x_min":75,"x_max":824,"o":"m 824 360 q 795 215 824 283 q 717 94 767 146 q 597 13 667 43 q 447 -17 528 -17 q 299 13 367 -17 q 181 94 231 43 q 103 213 131 144 q 75 357 75 281 q 103 502 75 433 q 181 622 131 571 q 299 703 231 674 q 450 733 368 733 q 599 703 531 733 q 718 623 668 674 q 796 504 768 572 q 824 360 824 436 m 714 357 q 694 467 714 415 q 638 556 674 518 q 553 617 601 594 q 447 639 504 639 q 340 617 389 639 q 258 558 292 596 q 204 469 224 519 q 185 360 185 418 q 205 250 185 301 q 260 161 225 199 q 344 101 296 124 q 450 79 393 79 q 557 101 508 79 q 640 160 606 122 q 694 248 675 197 q 714 357 714 299 m 633 826 l 508 826 l 508 958 l 633 958 l 633 826 m 389 826 l 264 826 l 264 958 l 389 958 l 389 826 "},"õ":{"ha":897,"x_min":75,"x_max":824,"o":"m 824 360 q 795 215 824 283 q 717 94 767 146 q 597 13 667 43 q 447 -17 528 -17 q 299 13 367 -17 q 181 94 231 43 q 103 213 131 144 q 75 357 75 281 q 103 502 75 433 q 181 622 131 571 q 299 703 231 674 q 450 733 368 733 q 599 703 531 733 q 718 623 668 674 q 796 504 768 572 q 824 360 824 436 m 714 357 q 694 467 714 415 q 638 556 674 518 q 553 617 601 594 q 447 639 504 639 q 340 617 389 639 q 258 558 292 596 q 204 469 224 519 q 185 360 185 418 q 205 250 185 301 q 260 161 225 199 q 344 101 296 124 q 450 79 393 79 q 557 101 508 79 q 640 160 606 122 q 694 248 675 197 q 714 357 714 299 m 676 972 q 625 860 656 893 q 544 826 594 826 q 496 835 521 826 q 446 853 471 843 q 399 873 421 864 q 358 882 376 882 q 316 867 331 882 q 286 814 301 851 l 221 832 q 272 944 242 911 q 353 978 303 978 q 401 969 376 978 q 451 949 426 960 q 499 931 476 939 q 539 922 521 922 q 581 938 567 922 q 611 990 596 953 l 676 972 "},"ú":{"ha":856,"x_min":108,"x_max":735,"o":"m 629 307 l 629 718 l 735 718 l 735 0 l 629 0 l 629 125 q 535 26 593 67 q 383 -15 476 -15 q 267 6 318 -15 q 181 65 217 26 q 127 156 146 103 q 108 272 108 208 l 108 718 l 215 718 l 215 299 q 267 140 215 199 q 414 82 318 82 q 499 98 460 82 q 567 144 539 114 q 613 215 596 174 q 629 307 629 257 m 456 822 l 369 822 l 501 1024 l 613 972 l 456 822 "},"ù":{"ha":856,"x_min":108,"x_max":735,"o":"m 629 307 l 629 718 l 735 718 l 735 0 l 629 0 l 629 125 q 535 26 593 67 q 383 -15 476 -15 q 267 6 318 -15 q 181 65 217 26 q 127 156 146 103 q 108 272 108 208 l 108 718 l 215 718 l 215 299 q 267 140 215 199 q 414 82 318 82 q 499 98 460 82 q 567 144 539 114 q 613 215 596 174 q 629 307 629 257 m 394 822 l 238 972 l 349 1024 l 481 822 l 394 822 "},"û":{"ha":856,"x_min":108,"x_max":735,"o":"m 629 307 l 629 718 l 735 718 l 735 0 l 629 0 l 629 125 q 535 26 593 67 q 383 -15 476 -15 q 267 6 318 -15 q 181 65 217 26 q 127 156 146 103 q 108 272 108 208 l 108 718 l 215 718 l 215 299 q 267 140 215 199 q 414 82 318 82 q 499 98 460 82 q 567 144 539 114 q 613 215 596 174 q 629 307 629 257 m 428 919 l 324 826 l 235 826 l 382 1008 l 476 1008 l 624 826 l 532 826 l 428 919 "},"ü":{"ha":856,"x_min":108,"x_max":735,"o":"m 629 307 l 629 718 l 735 718 l 735 0 l 629 0 l 629 125 q 535 26 593 67 q 383 -15 476 -15 q 267 6 318 -15 q 181 65 217 26 q 127 156 146 103 q 108 272 108 208 l 108 718 l 215 718 l 215 299 q 267 140 215 199 q 414 82 318 82 q 499 98 460 82 q 567 144 539 114 q 613 215 596 174 q 629 307 629 257 m 614 826 l 489 826 l 489 958 l 614 958 l 614 826 m 369 826 l 244 826 l 244 958 l 369 958 l 369 826 "},"†":{"ha":569,"x_min":83,"x_max":486,"o":"m 314 722 l 322 331 l 247 331 l 256 722 l 83 711 l 83 788 l 254 776 l 242 972 l 328 972 l 315 776 l 486 788 l 486 711 l 314 722 "},"°":{"ha":636,"x_min":100,"x_max":536,"o":"m 536 768 q 518 687 536 725 q 469 619 500 649 q 400 573 439 590 q 318 556 361 556 q 235 573 275 556 q 166 619 196 590 q 118 687 136 649 q 100 768 100 725 q 118 849 100 811 q 166 917 136 888 q 235 963 196 946 q 318 981 275 981 q 400 963 361 981 q 469 917 439 946 q 518 849 500 888 q 536 768 536 811 m 456 768 q 445 821 456 796 q 417 865 435 846 q 373 897 399 885 q 318 908 347 908 q 263 897 289 908 q 219 865 238 885 q 191 821 201 846 q 181 768 181 796 q 191 715 181 740 q 219 671 201 690 q 263 640 238 651 q 318 628 289 628 q 373 640 347 628 q 417 671 399 651 q 445 715 435 690 q 456 768 456 740 "},"¢":{"ha":807,"x_min":81,"x_max":740,"o":"m 740 258 q 617 157 686 196 q 450 118 549 118 q 429 118 439 118 q 410 121 421 118 l 385 -8 l 294 -8 l 325 139 q 226 193 271 158 q 149 274 181 228 q 99 376 117 321 q 81 492 81 431 q 109 637 81 568 q 187 757 138 706 q 303 838 236 808 q 449 868 371 868 l 467 868 l 488 981 l 578 981 l 553 856 q 656 810 613 840 q 736 739 700 779 l 667 667 q 604 722 636 697 q 529 760 572 747 l 425 217 q 442 215 433 215 q 460 214 450 214 q 579 246 526 215 q 674 321 632 276 l 740 258 m 451 772 l 443 772 q 342 750 389 772 q 262 690 296 728 q 208 603 228 653 q 189 494 189 553 q 233 338 189 407 q 349 236 278 268 l 451 772 "},"£":{"ha":894,"x_min":93,"x_max":814,"o":"m 210 506 l 210 656 q 231 790 210 729 q 290 895 251 851 q 386 963 329 939 q 517 986 443 986 q 696 943 626 986 q 814 836 765 900 l 729 769 q 640 853 689 821 q 515 885 592 885 q 370 823 421 885 q 319 656 319 761 l 319 506 l 707 506 l 707 410 l 319 410 l 319 97 l 813 97 l 813 0 l 93 0 l 93 64 l 210 93 l 210 410 l 93 410 l 93 506 l 210 506 "},"§":{"ha":878,"x_min":86,"x_max":792,"o":"m 792 474 q 742 369 792 410 q 608 314 692 328 q 683 254 656 290 q 711 172 711 218 q 642 37 711 88 q 456 -14 574 -14 q 277 22 358 -14 q 138 118 196 58 l 207 185 q 319 108 256 138 q 458 78 382 78 q 567 104 532 78 q 601 171 601 131 q 590 207 601 190 q 553 240 579 224 q 484 270 528 256 q 375 300 440 285 q 241 338 296 318 q 151 382 186 358 q 101 434 117 406 q 86 499 86 463 q 136 603 86 563 q 269 658 186 644 q 194 718 222 682 q 167 800 167 754 q 235 935 167 885 q 422 986 304 986 q 601 950 519 986 q 740 854 682 914 l 671 788 q 559 865 622 835 q 419 894 496 894 q 311 868 346 894 q 276 801 276 842 q 288 765 276 782 q 324 733 299 749 q 394 702 350 717 q 503 672 438 688 q 637 633 582 653 q 726 590 692 614 q 776 538 761 567 q 792 474 792 510 m 689 463 q 680 497 689 481 q 648 527 671 513 q 587 556 625 542 q 492 585 549 571 q 403 602 439 597 q 340 607 368 607 q 230 578 271 607 q 189 510 189 550 q 198 476 189 492 q 230 445 207 460 q 291 416 253 431 q 386 388 329 401 q 474 370 438 375 q 538 365 510 365 q 648 394 607 365 q 689 463 689 422 "},"•":{"ha":664,"x_min":150,"x_max":514,"o":"m 514 489 q 499 418 514 451 q 460 360 485 385 q 403 322 436 336 q 332 307 369 307 q 261 322 294 307 q 203 360 228 336 q 165 418 179 385 q 150 489 150 451 q 165 560 150 526 q 203 617 179 593 q 261 656 228 642 q 332 671 294 671 q 403 656 369 671 q 460 617 436 642 q 499 560 485 593 q 514 489 514 526 "},"¶":{"ha":708,"x_min":67,"x_max":581,"o":"m 433 972 l 581 972 l 581 0 l 469 0 l 469 367 l 454 367 q 301 386 372 367 q 178 444 231 406 q 97 540 126 483 q 67 669 67 596 q 94 797 67 740 q 169 892 121 853 q 284 951 217 931 q 433 972 351 972 "},"ß":{"ha":861,"x_min":119,"x_max":781,"o":"m 721 772 q 704 682 721 722 q 660 610 688 642 q 599 556 633 579 q 528 517 564 532 q 623 486 578 506 q 703 436 668 467 q 760 364 739 406 q 781 268 781 322 q 754 152 781 203 q 679 67 728 101 q 561 14 631 32 q 406 -3 492 -4 l 406 83 q 600 133 529 86 q 671 268 671 179 q 599 400 671 353 q 406 460 528 447 l 406 539 q 487 576 449 556 q 552 625 525 597 q 595 688 579 653 q 611 765 611 722 q 561 884 611 839 q 429 929 511 929 q 283 867 340 929 q 226 697 226 804 l 226 0 l 119 0 l 119 696 q 142 830 119 769 q 205 933 164 890 q 304 1000 246 976 q 435 1024 363 1024 q 553 1004 500 1024 q 643 951 606 985 q 701 871 681 917 q 721 772 721 825 "},"®":{"ha":1153,"x_min":74,"x_max":1079,"o":"m 1079 488 q 1040 293 1079 385 q 933 133 1001 201 q 773 24 865 64 q 575 -17 681 -17 q 378 23 469 -17 q 219 131 286 63 q 113 290 151 199 q 74 485 74 382 q 113 679 74 588 q 219 840 151 771 q 380 949 288 908 q 578 989 472 989 q 775 949 683 989 q 934 842 867 910 q 1040 682 1001 774 q 1079 488 1079 590 m 1033 488 q 999 665 1033 582 q 903 811 964 749 q 758 910 842 874 q 578 946 675 946 q 396 909 479 946 q 251 810 313 872 q 154 663 189 747 q 119 485 119 579 q 154 307 119 390 q 250 161 189 224 q 394 63 311 99 q 575 26 478 26 q 756 63 672 26 q 902 163 840 100 q 999 309 964 225 q 1033 488 1033 393 m 804 603 q 767 501 804 539 q 671 450 729 464 l 831 243 l 736 243 l 588 438 l 456 438 l 456 243 l 379 243 l 379 758 l 610 758 q 750 717 696 758 q 804 603 804 675 m 725 599 q 694 665 725 642 q 607 689 663 689 l 456 689 l 456 506 l 603 506 q 691 530 657 506 q 725 599 725 554 "},"©":{"ha":1153,"x_min":74,"x_max":1079,"o":"m 1079 488 q 1040 293 1079 385 q 933 133 1001 201 q 773 24 865 64 q 575 -17 681 -17 q 378 23 469 -17 q 219 131 286 63 q 113 290 151 199 q 74 485 74 382 q 113 679 74 588 q 219 840 151 771 q 380 949 288 908 q 578 989 472 989 q 775 949 683 989 q 934 842 867 910 q 1040 682 1001 774 q 1079 488 1079 590 m 1033 488 q 999 665 1033 582 q 903 811 964 749 q 758 910 842 874 q 578 946 675 946 q 396 909 479 946 q 251 810 313 872 q 154 663 189 747 q 119 485 119 579 q 154 307 119 390 q 250 161 189 224 q 394 63 311 99 q 575 26 478 26 q 756 63 672 26 q 902 163 840 100 q 999 309 964 225 q 1033 488 1033 393 m 788 318 q 700 251 747 276 q 582 226 653 226 q 479 247 526 226 q 397 304 432 268 q 343 389 363 340 q 324 493 324 438 q 343 596 324 547 q 397 681 363 644 q 480 739 432 718 q 585 760 528 760 q 701 736 656 760 q 785 676 746 713 l 733 621 q 666 670 703 650 q 583 690 629 690 q 510 675 543 690 q 452 633 476 660 q 415 570 428 606 q 401 494 401 535 q 415 418 401 454 q 454 355 429 382 q 513 313 479 328 q 585 297 546 297 q 668 316 633 297 q 738 367 703 335 l 788 318 "},"™":{"ha":958,"x_min":36,"x_max":900,"o":"m 840 872 l 688 640 l 679 640 l 528 872 l 528 544 l 467 544 l 467 972 l 532 972 l 685 738 l 836 972 l 900 972 l 900 544 l 840 544 l 840 872 m 235 914 l 235 544 l 174 544 l 174 914 l 36 914 l 36 972 l 372 972 l 372 914 l 235 914 "},"´":{"ha":694,"x_min":251,"x_max":494,"o":"m 338 826 l 251 826 l 383 1028 l 494 976 l 338 826 "},"¨":{"ha":694,"x_min":163,"x_max":532,"o":"m 532 826 l 407 826 l 407 958 l 532 958 l 532 826 m 288 826 l 163 826 l 163 958 l 288 958 l 288 826 "},"Æ":{"ha":1451,"x_min":24,"x_max":1368,"o":"m 290 257 l 139 0 l 24 0 l 594 972 l 1361 972 l 1361 872 l 793 872 l 793 540 l 1299 540 l 1299 440 l 793 440 l 793 100 l 1368 100 l 1368 0 l 682 0 l 682 257 l 290 257 m 649 875 l 346 356 l 682 356 l 682 875 l 649 875 "},"Ø":{"ha":1181,"x_min":83,"x_max":1097,"o":"m 1086 488 q 1050 295 1086 386 q 949 135 1014 204 q 792 24 883 65 q 589 -17 700 -17 q 422 10 499 -17 q 285 86 346 38 l 199 -7 l 83 -7 l 221 143 q 127 299 160 211 q 94 485 94 388 q 131 677 94 586 q 232 838 167 768 q 389 948 297 907 q 592 989 481 989 q 758 962 682 989 q 896 886 835 935 l 982 979 l 1097 979 l 960 828 q 1053 673 1021 761 q 1086 488 1086 585 m 826 806 q 719 867 778 844 q 589 890 660 890 q 435 858 506 890 q 315 772 365 826 q 235 644 264 718 q 207 488 207 571 q 230 346 207 413 q 294 226 253 279 l 826 806 m 974 485 q 951 626 974 560 q 886 746 928 693 l 354 167 q 462 105 403 128 q 592 82 521 82 q 745 114 675 82 q 866 200 815 146 q 945 328 917 254 q 974 485 974 401 "},"±":{"ha":839,"x_min":60,"x_max":758,"o":"m 758 265 q 734 154 758 206 q 666 65 710 103 q 561 5 622 26 q 425 -17 500 -17 q 214 33 307 -17 q 60 158 121 82 l 140 228 q 264 122 193 161 q 428 83 335 83 q 515 96 475 83 q 585 133 556 108 q 631 190 614 157 q 647 265 647 224 q 579 396 647 349 q 388 443 511 443 l 288 443 l 288 538 l 390 538 q 483 550 440 538 q 556 585 525 563 q 603 642 586 608 q 621 718 621 676 q 565 841 621 793 q 413 889 508 889 q 271 853 331 889 q 161 750 211 817 l 81 808 q 219 940 139 890 q 415 989 300 989 q 543 969 485 989 q 643 915 601 950 q 708 833 685 881 q 732 728 732 785 q 717 642 732 679 q 679 578 703 606 q 625 531 656 550 q 563 499 594 511 q 640 465 604 485 q 702 415 676 444 q 743 349 728 386 q 758 265 758 313 "},"¥":{"ha":953,"x_min":38,"x_max":915,"o":"m 529 369 l 529 247 l 814 247 l 814 161 l 529 161 l 529 0 l 424 0 l 424 161 l 139 161 l 139 247 l 424 247 l 424 369 l 139 369 l 139 456 l 390 456 l 38 972 l 168 972 l 478 497 l 790 972 l 915 972 l 561 456 l 814 456 l 814 369 l 529 369 "},"µ":{"ha":1181,"x_min":94,"x_max":1146,"o":"m 1086 488 q 1039 269 1086 371 q 907 97 992 168 l 1146 -132 l 1146 -140 l 985 -140 l 801 31 q 589 -17 704 -17 q 387 24 478 -17 q 231 133 296 64 q 130 292 165 201 q 94 485 94 383 q 131 677 94 586 q 232 838 167 768 q 389 948 297 907 q 592 989 481 989 q 794 949 703 989 q 950 840 885 908 q 1051 680 1015 771 q 1086 488 1086 589 m 972 485 q 944 642 972 568 q 864 769 915 715 q 742 856 813 824 q 589 888 672 888 q 435 856 506 888 q 315 771 365 825 q 237 644 265 717 q 208 488 208 571 q 237 331 208 404 q 317 203 265 257 q 438 117 368 149 q 592 85 508 85 q 745 116 675 85 q 865 201 815 147 q 944 328 915 256 q 972 485 972 401 "},"π":{"ha":1153,"x_min":74,"x_max":1079,"o":"m 1079 488 q 1040 293 1079 385 q 933 133 1001 201 q 773 24 865 64 q 575 -17 681 -17 q 378 23 469 -17 q 219 131 286 63 q 113 290 151 199 q 74 485 74 382 q 113 679 74 588 q 219 840 151 771 q 380 949 288 908 q 578 989 472 989 q 775 949 683 989 q 934 842 867 910 q 1040 682 1001 774 q 1079 488 1079 590 m 1033 488 q 999 665 1033 582 q 903 811 964 749 q 758 910 842 874 q 578 946 675 946 q 396 909 479 946 q 251 810 313 872 q 154 663 189 747 q 119 485 119 579 q 154 307 119 390 q 250 161 189 224 q 394 63 311 99 q 575 26 478 26 q 756 63 672 26 q 902 163 840 100 q 999 309 964 225 q 1033 488 1033 393 m 808 586 q 791 510 808 542 q 745 456 774 478 q 678 423 717 433 q 599 413 640 413 l 483 413 l 483 239 l 406 239 l 406 754 l 608 754 q 754 710 700 754 q 808 586 808 667 m 731 585 q 696 660 731 636 q 601 685 661 685 l 483 685 l 483 482 l 600 482 q 695 509 660 482 q 731 585 731 536 "},"ª":{"ha":542,"x_min":81,"x_max":442,"o":"m 435 575 l 367 575 l 367 628 q 310 583 343 600 q 233 567 278 567 q 179 574 206 567 q 132 598 153 582 q 98 638 111 614 q 85 693 85 661 q 132 790 85 757 q 256 824 179 824 q 317 819 292 824 q 367 808 343 815 l 367 815 q 338 889 367 864 q 258 914 310 914 q 198 906 226 914 q 139 883 169 897 l 118 942 q 188 967 154 957 q 265 976 221 976 q 391 935 347 976 q 435 815 435 894 l 435 575 m 442 401 l 81 401 l 81 467 l 442 467 l 442 401 m 367 722 l 367 756 q 320 767 346 763 q 261 771 294 771 q 184 750 211 771 q 157 696 157 729 q 183 643 157 661 q 246 625 210 625 q 331 651 294 625 q 367 722 367 678 "},"º":{"ha":542,"x_min":67,"x_max":475,"o":"m 475 774 q 460 693 475 731 q 417 627 444 656 q 351 582 389 599 q 269 565 314 565 q 188 581 225 565 q 124 626 151 597 q 82 692 97 654 q 67 771 67 729 q 82 851 67 814 q 125 917 97 889 q 190 963 153 946 q 272 979 228 979 q 353 963 315 979 q 417 919 390 947 q 460 853 444 890 q 475 774 475 815 m 471 401 l 71 401 l 71 467 l 471 467 l 471 401 m 400 771 q 363 872 400 831 q 269 913 326 913 q 176 872 211 913 q 142 774 142 832 q 151 719 142 744 q 178 674 161 693 q 220 643 196 654 q 272 632 244 632 q 365 672 331 632 q 400 771 400 713 "},"æ":{"ha":1324,"x_min":65,"x_max":1257,"o":"m 650 128 q 514 26 592 68 q 336 -15 436 -15 q 235 -1 283 -15 q 149 42 186 14 q 88 112 111 69 q 65 210 65 154 q 88 310 65 267 q 150 383 110 354 q 245 428 190 413 q 367 443 300 443 q 482 435 433 443 q 579 413 531 426 l 579 438 q 526 584 579 535 q 372 633 472 633 q 260 619 310 633 q 161 581 211 604 l 129 668 q 247 712 189 696 q 383 728 306 728 q 553 690 486 728 q 647 574 619 651 q 762 690 690 646 q 922 733 833 733 q 1064 703 1001 733 q 1169 622 1126 674 q 1234 501 1211 571 q 1257 353 1257 432 q 1256 338 1257 346 q 1254 319 1256 329 l 686 319 q 714 216 692 261 q 770 140 736 171 q 847 92 804 108 q 938 76 890 76 q 1066 104 1013 76 q 1164 178 1119 132 l 1231 118 q 1108 20 1178 57 q 935 -17 1038 -17 q 773 22 847 -17 q 650 128 699 60 m 685 399 l 1147 399 q 1127 492 1143 447 q 1083 569 1111 536 q 1013 623 1054 603 q 919 643 972 643 q 831 624 872 643 q 760 573 790 606 q 710 496 729 540 q 685 399 690 451 m 578 335 q 488 355 538 346 q 378 364 438 364 q 226 324 279 364 q 174 215 174 285 q 188 154 174 181 q 225 109 201 128 q 281 81 249 90 q 349 71 313 71 q 492 106 428 71 q 607 199 557 142 q 578 335 582 261 "},"ø":{"ha":897,"x_min":54,"x_max":844,"o":"m 824 360 q 795 215 824 283 q 717 94 767 146 q 597 13 667 43 q 447 -17 528 -17 q 326 3 382 -17 q 224 57 269 22 l 161 -7 l 54 -7 l 164 111 q 99 224 122 161 q 75 357 75 286 q 103 502 75 433 q 181 622 131 571 q 299 703 231 674 q 450 733 368 733 q 572 714 515 733 q 674 658 629 694 l 736 726 l 844 726 l 733 607 q 800 495 776 558 q 824 360 824 432 m 608 582 q 447 640 542 640 q 340 619 389 640 q 256 559 292 597 q 201 469 221 521 q 182 360 182 418 q 236 189 182 263 l 608 582 m 715 357 q 661 529 715 456 l 289 133 q 450 76 358 76 q 558 98 508 76 q 642 158 607 119 q 696 247 676 196 q 715 357 715 299 "},"¿":{"ha":746,"x_min":67,"x_max":703,"o":"m 342 972 l 469 972 l 469 826 l 342 826 l 342 972 m 454 465 q 248 410 318 463 q 178 268 178 357 q 192 197 178 231 q 232 139 206 164 q 296 100 258 114 q 381 86 333 86 q 518 120 457 86 q 632 217 579 154 l 703 149 q 566 32 643 76 q 378 -12 489 -12 q 249 8 307 -12 q 151 66 192 29 q 89 153 111 103 q 67 264 67 204 q 90 378 67 329 q 152 463 113 428 q 244 518 192 497 q 356 547 296 539 l 368 697 l 439 697 l 461 472 l 454 465 "},"¡":{"ha":376,"x_min":125,"x_max":253,"o":"m 125 972 l 253 972 l 253 826 l 125 826 l 125 972 m 251 0 l 126 0 l 126 79 l 158 697 l 218 697 l 251 79 l 251 0 "},"√":{"ha":1386,"x_min":61,"x_max":1257,"o":"m 776 715 l 1003 715 l 1003 624 l 776 624 l 776 0 l 671 0 l 671 624 l 572 624 l 572 717 l 671 717 l 671 779 q 726 958 671 897 q 886 1019 782 1019 q 951 1015 924 1019 q 1004 1001 979 1011 l 1004 908 q 953 922 976 917 q 901 926 929 926 q 776 774 776 926 l 776 715 m 265 715 l 493 715 l 493 624 l 267 624 l 267 0 l 160 0 l 160 624 l 61 624 l 61 717 l 160 717 l 160 779 q 216 958 160 897 q 376 1019 272 1019 q 441 1015 414 1019 q 494 1001 468 1011 l 494 908 q 442 922 465 917 q 390 926 418 926 q 265 774 265 926 l 265 715 m 1257 0 l 1150 0 l 1150 1014 l 1257 1014 l 1257 0 "},"ƒ":{"ha":714,"x_min":57,"x_max":664,"o":"m 664 872 q 615 883 639 879 q 568 886 590 886 q 485 857 514 886 q 443 761 456 828 l 415 611 l 615 611 l 615 518 l 399 518 l 336 179 q 268 38 318 82 q 129 -7 218 -7 q 89 -6 106 -7 q 57 -1 72 -4 l 57 90 q 118 85 83 85 q 189 110 163 85 q 226 190 215 135 l 288 518 l 151 518 l 151 611 l 303 611 l 335 776 q 405 930 354 881 q 551 979 456 979 q 613 976 588 979 q 664 964 639 972 l 664 872 "},"≈":{"ha":1386,"x_min":61,"x_max":1264,"o":"m 1264 875 l 1143 875 l 1143 993 l 1264 993 l 1264 875 m 776 715 l 1003 715 l 1003 624 l 776 624 l 776 0 l 671 0 l 671 624 l 572 624 l 572 717 l 671 717 l 671 779 q 726 958 671 897 q 886 1019 782 1019 q 951 1015 924 1019 q 1004 1001 979 1011 l 1004 908 q 953 922 976 917 q 901 926 929 926 q 776 774 776 926 l 776 715 m 265 715 l 493 715 l 493 624 l 267 624 l 267 0 l 160 0 l 160 624 l 61 624 l 61 717 l 160 717 l 160 779 q 216 958 160 897 q 376 1019 272 1019 q 441 1015 414 1019 q 494 1001 468 1011 l 494 908 q 442 922 465 917 q 390 926 418 926 q 265 774 265 926 l 265 715 m 1257 0 l 1150 0 l 1150 718 l 1257 718 l 1257 0 "},"«":{"ha":764,"x_min":67,"x_max":682,"o":"m 601 661 l 682 615 l 494 361 l 682 104 l 601 57 l 376 354 l 376 365 l 601 661 m 292 661 l 374 615 l 186 361 l 374 104 l 292 57 l 67 354 l 67 365 l 292 661 "},"»":{"ha":764,"x_min":82,"x_max":697,"o":"m 472 57 l 390 103 l 578 358 l 390 614 l 472 661 l 697 365 l 697 354 l 472 57 m 163 57 l 82 103 l 269 358 l 82 614 l 163 661 l 388 365 l 388 354 l 163 57 "},"…":{"ha":1004,"x_min":107,"x_max":899,"o":"m 899 0 l 774 0 l 774 143 l 899 143 l 899 0 m 564 0 l 440 0 l 440 143 l 564 143 l 564 0 m 231 0 l 107 0 l 107 143 l 231 143 l 231 0 "}," ":{"ha":417,"x_min":0,"x_max":0,"o":""},"À":{"ha":1097,"x_min":54,"x_max":1043,"o":"m 600 979 l 1043 0 l 925 0 l 811 257 l 282 257 l 167 0 l 54 0 l 497 979 l 600 979 m 768 356 l 547 851 l 325 356 l 768 356 m 504 1058 l 347 1208 l 458 1260 l 590 1058 l 504 1058 "},"Ã":{"ha":1097,"x_min":54,"x_max":1043,"o":"m 600 979 l 1043 0 l 925 0 l 811 257 l 282 257 l 167 0 l 54 0 l 497 979 l 600 979 m 768 356 l 547 851 l 325 356 l 768 356 m 776 1204 q 725 1092 756 1125 q 644 1058 694 1058 q 596 1067 621 1058 q 546 1085 571 1075 q 499 1105 521 1096 q 458 1114 476 1114 q 416 1099 431 1114 q 386 1046 401 1083 l 321 1064 q 372 1176 342 1143 q 453 1210 403 1210 q 501 1201 476 1210 q 551 1181 526 1192 q 599 1163 576 1171 q 639 1154 621 1154 q 681 1169 667 1154 q 711 1222 696 1185 l 776 1204 "},"Õ":{"ha":1181,"x_min":94,"x_max":1086,"o":"m 1086 488 q 1050 295 1086 386 q 949 135 1014 204 q 792 24 883 65 q 589 -17 700 -17 q 387 24 478 -17 q 231 133 296 64 q 130 292 165 201 q 94 485 94 383 q 131 677 94 586 q 232 838 167 768 q 389 948 297 907 q 592 989 481 989 q 794 949 703 989 q 950 840 885 908 q 1051 680 1015 771 q 1086 488 1086 589 m 972 485 q 944 642 972 568 q 864 769 915 715 q 742 856 813 824 q 589 888 672 888 q 435 856 506 888 q 315 771 365 825 q 237 644 265 717 q 208 488 208 571 q 237 331 208 404 q 317 203 265 257 q 438 117 368 149 q 592 85 508 85 q 745 116 675 85 q 865 201 815 147 q 944 328 915 256 q 972 485 972 401 m 818 1204 q 767 1092 797 1125 q 686 1058 736 1058 q 638 1067 663 1058 q 588 1085 613 1075 q 540 1105 563 1096 q 500 1114 518 1114 q 458 1099 472 1114 q 428 1046 443 1083 l 363 1064 q 414 1176 383 1143 q 494 1210 444 1210 q 543 1201 518 1210 q 593 1181 568 1192 q 640 1163 618 1171 q 681 1154 663 1154 q 723 1169 708 1154 q 753 1222 738 1185 l 818 1204 "},"Œ":{"ha":1571,"x_min":94,"x_max":1488,"o":"m 1488 0 l 611 0 q 401 37 496 0 q 238 139 307 74 q 132 293 169 204 q 94 485 94 382 q 132 676 94 588 q 238 831 169 765 q 401 935 307 897 q 611 972 496 972 l 1481 972 l 1481 872 l 913 872 l 913 540 l 1418 540 l 1418 440 l 913 440 l 913 100 l 1488 100 l 1488 0 m 803 101 l 803 871 l 611 871 q 444 842 519 871 q 317 760 369 813 q 237 638 265 708 q 208 488 208 568 q 237 335 208 406 q 317 213 265 265 q 444 131 369 161 q 611 101 519 101 l 803 101 "},"œ":{"ha":1457,"x_min":75,"x_max":1389,"o":"m 761 178 q 634 38 717 92 q 443 -17 551 -17 q 298 13 365 -17 q 181 94 231 43 q 103 213 132 144 q 75 357 75 281 q 103 502 75 433 q 182 622 132 571 q 300 703 232 674 q 447 733 368 733 q 636 680 554 733 q 763 540 718 626 q 880 681 803 628 q 1057 733 957 733 q 1197 703 1136 733 q 1301 622 1258 674 q 1367 501 1344 571 q 1389 353 1389 432 q 1389 338 1389 346 q 1388 319 1389 329 l 819 319 q 847 216 825 261 q 903 140 869 171 q 981 92 938 108 q 1071 76 1024 76 q 1199 104 1146 76 q 1297 178 1253 132 l 1364 118 q 1241 20 1311 57 q 1069 -17 1171 -17 q 887 35 969 -17 q 761 178 804 86 m 818 399 l 1281 399 q 1260 492 1276 447 q 1216 569 1244 536 q 1147 623 1188 603 q 1053 643 1106 643 q 965 624 1006 643 q 893 573 924 606 q 843 496 863 540 q 818 399 824 451 m 710 357 q 690 467 710 415 q 634 556 669 518 q 550 617 599 594 q 446 639 501 639 q 340 617 388 639 q 258 558 292 596 q 204 469 224 519 q 185 360 185 418 q 205 250 185 301 q 260 161 225 199 q 344 101 296 124 q 449 79 392 79 q 555 101 507 79 q 637 160 603 122 q 690 248 671 197 q 710 357 710 299 "},"–":{"ha":733,"x_min":90,"x_max":643,"o":"m 643 364 l 90 364 l 90 471 l 643 471 l 643 364 "},"—":{"ha":1247,"x_min":90,"x_max":1157,"o":"m 1157 364 l 90 364 l 90 471 l 1157 471 l 1157 364 "},"“":{"ha":618,"x_min":100,"x_max":547,"o":"m 547 931 q 473 883 494 911 q 454 810 451 854 l 504 810 l 504 664 l 378 664 l 378 789 q 415 917 378 874 q 531 979 451 961 l 547 931 m 269 931 q 195 883 217 911 q 176 810 174 854 l 228 810 l 228 664 l 100 664 l 100 789 q 137 917 100 874 q 253 979 174 961 l 269 931 "},"”":{"ha":618,"x_min":71,"x_max":518,"o":"m 349 706 q 424 753 401 725 q 442 826 446 782 l 392 826 l 392 972 l 518 972 l 518 847 q 481 719 518 763 q 365 657 444 675 l 349 706 m 71 706 q 146 753 124 725 q 164 826 168 782 l 114 826 l 114 972 l 242 972 l 242 847 q 204 719 242 763 q 88 657 167 675 l 71 706 "},"‘":{"ha":340,"x_min":100,"x_max":269,"o":"m 269 931 q 195 883 217 911 q 176 810 174 854 l 228 810 l 228 664 l 100 664 l 100 789 q 137 917 100 874 q 253 979 174 961 l 269 931 "},"’":{"ha":340,"x_min":71,"x_max":242,"o":"m 71 706 q 146 753 124 725 q 164 826 168 782 l 114 826 l 114 972 l 242 972 l 242 847 q 204 719 242 763 q 88 657 167 675 l 71 706 "},"ÿ":{"ha":821,"x_min":47,"x_max":771,"o":"m 771 718 l 469 -24 q 367 -181 424 -135 q 231 -226 311 -226 q 150 -217 186 -226 q 78 -190 114 -208 l 114 -106 q 166 -126 140 -119 q 226 -132 192 -132 q 308 -103 275 -132 q 374 3 342 -74 l 47 718 l 165 718 l 426 119 l 657 718 l 771 718 m 596 826 l 471 826 l 471 958 l 596 958 l 596 826 m 351 826 l 226 826 l 226 958 l 351 958 l 351 826 "},"Ÿ":{"ha":994,"x_min":38,"x_max":957,"o":"m 553 386 l 553 0 l 442 0 l 442 385 l 38 972 l 171 972 l 499 486 l 829 972 l 957 972 l 553 386 m 682 1054 l 557 1054 l 557 1186 l 682 1186 l 682 1054 m 438 1054 l 313 1054 l 313 1186 l 438 1186 l 438 1054 "},"¤":{"ha":1000,"x_min":78,"x_max":928,"o":"m 193 567 l 78 567 l 78 653 l 208 653 q 264 787 228 725 q 349 894 300 849 q 458 964 397 939 q 590 989 519 989 q 701 974 651 989 q 792 935 751 960 q 865 875 832 910 q 925 799 897 840 l 842 739 q 789 803 815 775 q 732 851 763 832 q 666 881 701 871 q 586 890 631 890 q 423 824 493 890 q 321 653 353 758 l 678 653 l 678 567 l 303 567 q 299 527 300 547 q 297 488 297 507 q 298 451 297 468 q 300 417 299 435 l 678 417 l 678 329 l 318 329 q 423 149 349 217 q 601 82 497 82 q 741 125 683 82 q 849 242 799 168 l 928 186 q 866 106 899 143 q 793 41 833 68 q 704 -1 753 14 q 597 -17 656 -17 q 460 8 524 -17 q 345 79 396 33 q 258 188 294 125 q 204 329 222 251 l 78 329 l 78 417 l 190 417 q 188 450 188 433 q 188 485 188 467 q 189 526 188 506 q 193 567 190 547 "},"‹":{"ha":456,"x_min":67,"x_max":374,"o":"m 292 661 l 374 615 l 186 361 l 374 104 l 292 57 l 67 354 l 67 365 l 292 661 "},"›":{"ha":456,"x_min":82,"x_max":388,"o":"m 163 57 l 82 103 l 269 358 l 82 614 l 163 661 l 388 365 l 388 354 l 163 57 "},"ﬁ":{"ha":876,"x_min":61,"x_max":754,"o":"m 754 875 l 632 875 l 632 993 l 754 993 l 754 875 m 265 715 l 493 715 l 493 624 l 267 624 l 267 0 l 160 0 l 160 624 l 61 624 l 61 717 l 160 717 l 160 779 q 216 958 160 897 q 376 1019 272 1019 q 441 1015 414 1019 q 494 1001 468 1011 l 494 908 q 442 922 465 917 q 390 926 418 926 q 265 774 265 926 l 265 715 m 746 0 l 640 0 l 640 718 l 746 718 l 746 0 "},"ﬂ":{"ha":876,"x_min":61,"x_max":746,"o":"m 265 715 l 493 715 l 493 624 l 267 624 l 267 0 l 160 0 l 160 624 l 61 624 l 61 717 l 160 717 l 160 779 q 216 958 160 897 q 376 1019 272 1019 q 441 1015 414 1019 q 494 1001 468 1011 l 494 908 q 442 922 465 917 q 390 926 418 926 q 265 774 265 926 l 265 715 m 746 0 l 640 0 l 640 1014 l 746 1014 l 746 0 "},"‡":{"ha":597,"x_min":97,"x_max":500,"o":"m 500 185 l 329 196 l 342 0 l 256 0 l 268 196 l 97 185 l 97 261 l 269 250 l 261 486 l 269 722 l 97 711 l 97 788 l 268 776 l 256 972 l 342 972 l 329 776 l 500 788 l 500 711 l 328 722 l 336 486 l 328 250 l 500 261 l 500 185 "},"·":{"ha":340,"x_min":107,"x_max":235,"o":"m 235 344 l 107 344 l 107 490 l 235 490 l 235 344 "},"‚":{"ha":340,"x_min":64,"x_max":235,"o":"m 64 -121 q 139 -73 117 -101 q 157 0 161 -44 l 107 0 l 107 146 l 235 146 l 235 21 q 197 -108 235 -64 q 81 -169 160 -151 l 64 -121 "},"„":{"ha":618,"x_min":64,"x_max":511,"o":"m 342 -121 q 417 -73 394 -101 q 435 0 439 -44 l 385 0 l 385 146 l 511 146 l 511 21 q 474 -108 511 -64 q 358 -169 438 -151 l 342 -121 m 64 -121 q 139 -73 117 -101 q 157 0 161 -44 l 107 0 l 107 146 l 235 146 l 235 21 q 197 -108 235 -64 q 81 -169 160 -151 l 64 -121 "},"‰":{"ha":1682,"x_min":72,"x_max":1608,"o":"m 513 736 q 497 641 513 686 q 451 561 481 596 q 382 506 422 526 q 292 486 342 486 q 201 506 242 486 q 133 560 161 526 q 88 639 104 594 q 72 733 72 683 q 88 828 72 783 q 133 908 104 874 q 203 963 163 943 q 294 983 244 983 q 383 963 343 983 q 452 909 424 943 q 497 831 481 875 q 513 736 513 786 m 886 972 l 985 972 l 272 0 l 172 0 l 886 972 m 1608 239 q 1592 144 1608 189 q 1548 64 1576 99 q 1478 9 1519 29 q 1388 -11 1438 -11 q 1299 9 1339 -11 q 1230 63 1258 29 q 1185 142 1201 97 q 1169 236 1169 186 q 1185 331 1169 286 q 1231 411 1201 376 q 1300 466 1260 446 q 1390 486 1340 486 q 1481 466 1440 486 q 1549 412 1521 446 q 1593 333 1578 378 q 1608 239 1608 289 m 1085 239 q 1069 144 1085 189 q 1024 64 1053 99 q 955 9 996 29 q 864 -11 914 -11 q 775 9 815 -11 q 706 63 735 29 q 662 142 678 97 q 646 236 646 186 q 662 331 646 286 q 707 411 678 376 q 776 466 736 446 q 867 486 817 486 q 957 466 917 486 q 1026 412 997 446 q 1069 333 1054 378 q 1085 239 1085 289 m 421 733 q 410 802 421 771 q 383 856 400 833 q 342 892 365 879 q 292 906 318 906 q 240 892 263 906 q 200 856 217 879 q 174 802 183 833 q 165 736 165 771 q 175 667 165 699 q 203 613 185 636 q 244 577 221 590 q 294 564 267 564 q 346 577 322 564 q 386 613 369 590 q 412 667 403 636 q 421 733 421 697 m 1517 236 q 1507 305 1517 274 q 1479 359 1497 336 q 1438 395 1461 382 q 1388 408 1414 408 q 1336 395 1360 408 q 1296 359 1313 382 q 1270 305 1279 336 q 1261 239 1261 274 q 1271 170 1261 201 q 1299 116 1281 139 q 1340 80 1317 93 q 1390 67 1363 67 q 1442 80 1419 67 q 1482 116 1465 93 q 1508 169 1499 139 q 1517 236 1517 200 m 993 236 q 983 305 993 274 q 956 359 974 336 q 914 395 938 382 q 864 408 890 408 q 813 395 836 408 q 772 359 789 382 q 747 305 756 336 q 738 239 738 274 q 747 170 738 201 q 775 116 757 139 q 816 80 793 93 q 867 67 839 67 q 919 80 896 67 q 958 116 942 93 q 984 169 975 139 q 993 236 993 200 "},"Â":{"ha":1097,"x_min":54,"x_max":1043,"o":"m 600 979 l 1043 0 l 925 0 l 811 257 l 282 257 l 167 0 l 54 0 l 497 979 l 600 979 m 768 356 l 547 851 l 325 356 l 768 356 m 547 1147 l 443 1054 l 354 1054 l 501 1236 l 596 1236 l 743 1054 l 651 1054 l 547 1147 "},"Ê":{"ha":931,"x_min":138,"x_max":847,"o":"m 840 972 l 840 872 l 247 872 l 247 540 l 778 540 l 778 440 l 247 440 l 247 100 l 847 100 l 847 0 l 138 0 l 138 972 l 840 972 m 482 1151 l 378 1058 l 289 1058 l 436 1240 l 531 1240 l 678 1058 l 586 1058 l 482 1151 "},"Á":{"ha":1097,"x_min":54,"x_max":1043,"o":"m 600 979 l 1043 0 l 925 0 l 811 257 l 282 257 l 167 0 l 54 0 l 497 979 l 600 979 m 768 356 l 547 851 l 325 356 l 768 356 m 593 1058 l 507 1058 l 639 1260 l 750 1208 l 593 1058 "},"Ë":{"ha":931,"x_min":138,"x_max":847,"o":"m 840 972 l 840 872 l 247 872 l 247 540 l 778 540 l 778 440 l 247 440 l 247 100 l 847 100 l 847 0 l 138 0 l 138 972 l 840 972 m 668 1058 l 543 1058 l 543 1190 l 668 1190 l 668 1058 m 424 1058 l 299 1058 l 299 1190 l 424 1190 l 424 1058 "},"È":{"ha":931,"x_min":138,"x_max":847,"o":"m 840 972 l 840 872 l 247 872 l 247 540 l 778 540 l 778 440 l 247 440 l 247 100 l 847 100 l 847 0 l 138 0 l 138 972 l 840 972 m 472 1058 l 315 1208 l 426 1260 l 558 1058 l 472 1058 "},"Í":{"ha":404,"x_min":147,"x_max":403,"o":"m 147 972 l 257 972 l 257 0 l 147 0 l 147 972 m 246 1058 l 160 1058 l 292 1260 l 403 1208 l 246 1058 "},"Î":{"ha":404,"x_min":147,"x_max":538,"o":"m 147 972 l 257 972 l 257 0 l 147 0 l 147 972 m 342 1151 l 238 1058 l 149 1058 l 296 1240 l 390 1240 l 538 1058 l 446 1058 l 342 1151 "},"Ï":{"ha":404,"x_min":147,"x_max":518,"o":"m 147 972 l 257 972 l 257 0 l 147 0 l 147 972 m 518 1058 l 393 1058 l 393 1190 l 518 1190 l 518 1058 m 274 1058 l 149 1058 l 149 1190 l 274 1190 l 274 1058 "},"Ì":{"ha":404,"x_min":147,"x_max":392,"o":"m 147 972 l 257 972 l 257 0 l 147 0 l 147 972 m 306 1058 l 149 1208 l 260 1260 l 392 1058 l 306 1058 "},"Ó":{"ha":1181,"x_min":94,"x_max":1086,"o":"m 1086 488 q 1050 295 1086 386 q 949 135 1014 204 q 792 24 883 65 q 589 -17 700 -17 q 387 24 478 -17 q 231 133 296 64 q 130 292 165 201 q 94 485 94 383 q 131 677 94 586 q 232 838 167 768 q 389 948 297 907 q 592 989 481 989 q 794 949 703 989 q 950 840 885 908 q 1051 680 1015 771 q 1086 488 1086 589 m 972 485 q 944 642 972 568 q 864 769 915 715 q 742 856 813 824 q 589 888 672 888 q 435 856 506 888 q 315 771 365 825 q 237 644 265 717 q 208 488 208 571 q 237 331 208 404 q 317 203 265 257 q 438 117 368 149 q 592 85 508 85 q 745 116 675 85 q 865 201 815 147 q 944 328 915 256 q 972 485 972 401 m 640 1058 l 554 1058 l 686 1260 l 797 1208 l 640 1058 "},"Ô":{"ha":1181,"x_min":94,"x_max":1086,"o":"m 1086 488 q 1050 295 1086 386 q 949 135 1014 204 q 792 24 883 65 q 589 -17 700 -17 q 387 24 478 -17 q 231 133 296 64 q 130 292 165 201 q 94 485 94 383 q 131 677 94 586 q 232 838 167 768 q 389 948 297 907 q 592 989 481 989 q 794 949 703 989 q 950 840 885 908 q 1051 680 1015 771 q 1086 488 1086 589 m 972 485 q 944 642 972 568 q 864 769 915 715 q 742 856 813 824 q 589 888 672 888 q 435 856 506 888 q 315 771 365 825 q 237 644 265 717 q 208 488 208 571 q 237 331 208 404 q 317 203 265 257 q 438 117 368 149 q 592 85 508 85 q 745 116 675 85 q 865 201 815 147 q 944 328 915 256 q 972 485 972 401 m 589 1151 l 485 1058 l 396 1058 l 543 1240 l 638 1240 l 785 1058 l 693 1058 l 589 1151 "},"":{"ha":1343,"x_min":140,"x_max":1206,"o":"m 1206 0 l 140 0 l 140 1042 l 1206 1042 l 1206 0 m 1193 -144 l 1185 -144 l 1181 -117 l 1167 -146 l 1164 -146 l 1150 -117 l 1146 -144 l 1138 -144 l 1146 -97 l 1147 -97 l 1165 -133 l 1183 -97 l 1185 -97 l 1193 -144 m 1119 -121 q 1113 -139 1119 -132 q 1096 -146 1107 -146 q 1078 -139 1085 -146 q 1072 -122 1072 -132 q 1079 -104 1072 -111 q 1097 -97 1086 -97 q 1113 -104 1107 -97 q 1119 -121 1119 -111 m 1053 -133 l 1051 -142 q 1038 -146 1047 -146 q 1013 -122 1013 -146 q 1019 -104 1013 -111 q 1038 -97 1026 -97 q 1053 -101 1046 -97 l 1050 -108 q 1038 -104 1046 -104 q 1026 -109 1031 -104 q 1021 -121 1021 -114 q 1039 -139 1021 -139 q 1053 -133 1044 -139 m 975 -99 l 957 -125 l 957 -144 l 949 -144 l 949 -125 l 929 -99 l 938 -97 l 953 -118 l 965 -99 l 975 -99 m 911 -144 l 903 -144 l 903 -124 l 881 -124 l 881 -144 l 872 -144 l 872 -99 l 881 -99 l 881 -117 l 903 -117 l 903 -99 l 911 -99 l 911 -144 m 850 -114 q 826 -131 850 -131 l 826 -144 l 818 -144 l 818 -99 q 844 -101 838 -96 q 850 -114 850 -107 m 800 -144 l 792 -144 l 786 -133 l 767 -133 l 763 -144 l 754 -144 l 775 -97 l 778 -97 l 800 -144 m 742 -144 l 732 -144 l 721 -129 l 714 -129 l 714 -144 l 706 -144 l 706 -99 q 731 -101 725 -96 q 738 -112 738 -106 q 728 -126 738 -122 l 742 -144 m 682 -140 q 664 -146 674 -146 q 646 -140 653 -146 q 639 -122 639 -133 q 647 -104 639 -111 q 665 -97 654 -97 q 682 -103 674 -97 l 679 -110 q 664 -104 674 -104 q 647 -122 647 -104 q 665 -139 647 -139 q 674 -136 668 -139 l 674 -126 l 661 -126 l 661 -119 l 682 -119 l 682 -140 m 621 -121 q 615 -139 621 -132 q 597 -146 608 -146 q 580 -139 586 -146 q 574 -122 574 -132 q 581 -104 574 -111 q 599 -97 588 -97 q 615 -104 608 -97 q 621 -121 621 -111 m 556 -114 q 532 -131 556 -131 l 532 -144 l 524 -144 l 524 -99 q 549 -101 543 -96 q 556 -114 556 -107 m 506 -99 l 488 -125 l 488 -144 l 479 -144 l 479 -125 l 460 -99 l 468 -97 l 483 -118 l 496 -99 l 506 -99 m 449 -99 l 449 -106 l 432 -106 l 432 -144 l 424 -144 l 424 -106 l 407 -106 l 407 -99 l 449 -99 m 371 -99 l 354 -146 l 353 -146 l 338 -114 l 324 -146 l 322 -146 l 306 -99 l 314 -97 l 324 -129 l 338 -97 l 339 -97 l 353 -129 l 363 -99 l 371 -99 m 293 -99 l 276 -146 l 275 -146 l 260 -114 l 246 -146 l 244 -146 l 228 -99 l 236 -97 l 246 -129 l 260 -97 l 261 -97 l 275 -129 l 285 -99 l 293 -99 m 215 -99 l 199 -146 l 197 -146 l 182 -114 l 168 -146 l 167 -146 l 150 -99 l 158 -97 l 168 -129 l 182 -97 l 183 -97 l 197 -129 l 207 -99 l 215 -99 m 994 -140 q 989 -146 994 -146 q 983 -140 983 -146 q 989 -135 983 -135 q 994 -140 994 -135 m 394 -140 q 389 -146 394 -146 q 383 -140 383 -146 q 389 -135 383 -135 q 394 -140 394 -135 m 776 953 q 776 958 776 953 q 775 969 776 965 q 751 968 772 968 q 726 969 731 968 q 726 959 726 965 q 725 953 725 953 l 728 953 q 731 959 728 953 q 742 965 735 965 q 746 961 746 965 l 746 929 q 742 922 746 922 q 739 922 739 922 l 739 919 l 763 919 l 763 922 q 758 922 763 922 q 756 929 756 922 l 756 961 q 760 965 756 965 q 770 959 767 965 q 774 953 774 953 l 776 953 m 700 919 l 700 922 q 696 922 700 922 q 692 929 692 922 l 692 958 q 696 965 692 965 q 700 965 700 965 l 700 968 l 675 968 l 675 967 l 675 965 q 678 965 675 965 q 682 958 682 965 l 682 946 l 658 946 l 658 958 q 661 965 658 965 q 665 965 665 965 l 665 967 l 665 968 l 642 968 l 642 965 q 644 965 642 965 q 649 958 649 965 l 649 929 q 645 923 649 924 q 642 922 642 922 l 642 919 l 665 919 l 665 922 q 662 923 665 922 q 658 929 658 924 l 658 943 l 682 943 l 682 929 q 678 922 682 922 q 675 922 675 922 l 675 919 l 700 919 m 610 922 q 606 922 610 922 q 603 929 603 922 l 603 958 q 606 965 603 965 q 610 965 610 965 l 610 968 l 569 968 l 567 954 l 569 953 q 572 958 569 953 q 582 964 575 964 l 588 964 q 593 960 593 964 l 593 946 l 588 946 q 580 949 581 946 q 579 953 579 953 l 576 953 l 576 935 l 579 935 q 580 939 579 935 q 588 943 581 943 l 593 943 l 593 928 q 588 924 593 924 l 582 924 q 572 930 575 924 q 568 936 568 936 l 565 935 l 568 919 l 610 919 l 610 922 m 1149 858 l 1149 867 l 197 867 l 197 858 l 1149 858 m 967 750 q 951 787 967 771 q 915 803 935 803 q 894 796 906 803 q 883 772 883 789 q 899 735 883 750 q 935 719 915 719 q 956 726 944 719 q 967 750 967 733 m 818 746 q 799 769 818 763 q 806 782 806 774 q 799 796 806 789 q 776 803 792 803 q 758 788 758 803 q 765 779 758 779 q 771 783 771 779 q 769 788 771 788 q 767 792 767 789 q 776 799 767 799 q 790 782 790 799 q 788 774 790 776 q 765 765 765 776 q 776 757 765 757 q 792 764 785 757 q 800 743 800 757 q 783 724 800 724 q 767 736 767 724 q 771 740 767 740 q 774 739 772 740 q 778 738 775 738 q 783 744 783 738 q 774 751 783 751 q 761 738 761 751 q 783 719 761 719 q 810 727 801 719 q 818 746 818 735 m 410 746 q 390 769 410 763 q 397 782 397 774 q 390 796 397 789 q 368 803 383 803 q 350 788 350 803 q 357 779 350 779 q 363 783 363 779 q 360 788 363 788 q 358 792 358 789 q 368 799 358 799 q 382 782 382 799 q 379 774 382 776 q 357 765 357 776 q 368 757 357 757 q 383 764 376 757 q 392 743 392 757 q 375 724 392 724 q 358 736 358 724 q 363 740 358 740 q 365 739 364 740 q 369 738 367 738 q 375 744 375 738 q 365 751 375 751 q 353 738 353 751 q 375 719 353 719 q 401 727 393 719 q 410 746 410 735 m 1139 725 q 1133 726 1139 725 q 1125 736 1128 726 l 1115 785 q 1119 795 1113 794 q 1125 796 1125 796 l 1124 800 l 1085 800 l 1086 796 q 1091 795 1086 796 q 1099 785 1096 794 l 1103 764 l 1069 764 l 1065 785 q 1069 795 1063 794 q 1075 796 1075 796 l 1074 800 l 1033 800 l 1035 796 q 1040 795 1035 796 q 1049 785 1046 794 l 1058 736 q 1055 726 1061 726 q 1049 725 1049 725 l 1050 721 l 1090 721 l 1089 725 q 1083 726 1089 725 q 1075 736 1078 726 l 1071 758 l 1104 758 l 1108 736 q 1105 726 1111 726 q 1099 725 1099 725 l 1100 721 l 1140 721 l 1139 725 m 692 721 l 690 725 q 685 726 690 725 q 676 736 679 726 l 667 785 q 670 795 664 794 q 676 796 676 796 l 675 800 l 613 800 q 613 786 614 796 q 613 776 613 776 l 618 776 q 619 785 618 776 q 636 794 621 794 l 642 794 q 650 786 649 794 l 654 764 l 649 764 q 635 770 639 764 q 632 776 632 776 l 628 776 l 635 744 l 639 744 q 640 752 639 744 q 650 760 640 760 l 656 760 l 660 736 q 656 726 663 726 q 650 725 650 725 l 651 721 l 692 721 m 281 725 q 275 726 281 725 q 267 736 269 726 l 257 785 q 260 795 254 794 q 267 796 267 796 l 265 800 l 228 800 q 200 779 200 800 q 208 765 200 771 q 226 758 215 760 l 214 736 q 201 726 208 726 q 194 725 194 725 l 196 721 l 222 721 l 239 753 q 246 757 240 757 l 250 736 q 247 726 253 726 q 240 725 240 725 l 242 721 l 282 721 l 281 725 m 556 724 q 551 731 556 726 q 538 736 547 735 q 531 751 532 740 q 528 773 531 761 q 520 794 526 785 q 497 803 514 803 q 485 798 490 803 q 479 789 479 793 q 486 782 479 782 q 492 790 492 782 q 499 799 492 799 q 508 792 506 799 q 511 775 510 785 q 516 755 513 765 q 528 736 519 744 q 508 727 513 736 q 496 718 503 718 q 489 724 489 718 q 490 727 489 726 q 492 731 492 728 q 485 738 492 738 q 478 728 478 738 q 485 716 478 721 q 499 711 492 711 q 519 720 517 711 q 533 729 522 729 q 550 719 538 719 q 556 724 556 719 m 1149 660 l 1149 668 l 197 668 l 197 660 l 1149 660 m 1149 525 l 1149 611 l 944 611 l 944 525 l 994 525 l 994 564 l 1010 564 l 1010 474 l 990 474 l 990 428 l 1103 428 l 1103 474 l 1083 474 l 1083 564 l 1099 564 l 1099 525 l 1149 525 m 900 564 l 900 611 l 788 611 l 788 564 l 803 564 l 782 532 l 761 564 l 775 564 l 775 611 l 689 611 l 689 564 l 706 564 l 757 500 l 757 474 l 738 474 l 738 428 l 850 428 l 850 474 l 829 474 l 829 501 l 881 564 l 900 564 m 636 428 l 636 474 l 617 474 l 617 564 l 636 564 l 636 611 l 503 611 q 455 595 472 611 q 438 556 438 579 q 455 516 438 532 q 503 500 472 500 l 544 500 l 544 474 l 524 474 l 524 428 l 636 428 m 393 428 l 393 474 l 374 474 l 374 564 l 393 564 l 393 611 l 197 611 l 197 525 l 254 525 l 254 564 l 300 564 l 300 536 l 267 536 l 267 503 l 300 503 l 300 474 l 254 474 l 254 513 l 197 513 l 197 428 l 393 428 m 1149 376 l 1149 385 l 197 385 l 197 376 l 1149 376 m 1011 267 q 995 303 1011 288 q 960 319 979 319 q 939 313 950 319 q 928 289 928 306 q 944 251 928 267 q 979 236 960 236 q 1000 243 989 236 q 1011 267 1011 250 m 282 301 q 273 314 278 308 q 257 319 268 319 q 238 288 236 319 q 226 310 233 301 q 208 319 219 319 q 197 315 201 319 q 192 303 192 311 l 196 301 q 207 310 196 310 q 228 295 221 310 q 240 264 236 281 q 238 244 244 246 q 232 243 232 243 l 233 238 l 272 238 l 271 243 q 265 244 271 243 q 257 256 260 244 q 250 290 250 279 q 263 308 250 308 q 273 305 269 308 q 279 299 276 301 l 282 301 m 1143 238 l 1142 242 q 1136 242 1142 242 q 1128 253 1131 243 l 1118 301 q 1122 312 1115 311 q 1128 313 1128 313 l 1126 317 l 1064 317 q 1065 303 1065 313 q 1064 293 1064 293 l 1069 293 q 1071 302 1069 293 q 1088 311 1072 311 l 1093 311 q 1101 303 1100 311 l 1106 281 l 1100 281 q 1087 287 1090 281 q 1083 293 1083 293 l 1079 293 l 1086 261 l 1090 261 q 1091 269 1090 261 q 1101 276 1092 276 l 1107 276 l 1111 253 q 1108 242 1114 243 q 1101 242 1101 242 l 1103 238 l 1143 238 m 863 313 l 861 317 l 821 317 l 822 313 q 828 312 822 313 q 836 300 833 311 l 843 271 q 844 250 846 257 q 828 243 843 243 q 810 252 817 243 q 800 274 803 261 l 794 300 q 798 312 792 311 q 804 313 804 313 l 804 317 l 771 317 l 772 313 q 778 312 772 313 q 788 300 785 311 l 793 274 q 804 249 796 263 q 832 236 813 236 q 858 247 856 236 q 858 269 861 258 l 851 300 q 856 312 849 311 q 863 313 863 313 m 725 242 q 720 243 725 242 q 713 256 715 244 l 703 300 q 707 312 700 311 q 714 313 714 313 l 713 317 l 693 317 l 653 258 l 646 300 q 649 311 643 310 q 656 313 656 313 l 654 317 l 625 317 l 626 313 q 631 311 626 313 q 639 300 636 310 l 650 238 l 654 236 l 696 297 l 704 256 q 701 243 707 244 q 696 242 696 242 l 697 238 l 726 238 l 725 242 m 575 238 l 574 243 q 568 244 574 243 q 560 256 563 244 l 549 299 q 560 313 544 311 l 558 317 l 517 317 q 493 309 504 317 q 482 286 482 301 q 497 251 482 264 q 531 238 513 238 l 575 238 m 425 242 q 419 242 425 242 q 411 253 414 243 l 401 301 q 405 312 399 311 q 411 313 411 313 l 410 317 l 372 317 q 344 296 344 317 q 352 282 344 288 q 371 275 360 276 l 358 253 q 346 242 353 243 q 339 242 339 242 l 340 238 l 367 238 l 383 269 q 390 274 385 274 l 394 253 q 391 242 397 243 q 385 242 385 242 l 386 238 l 426 238 l 425 242 m 1149 176 l 1149 185 l 197 185 l 197 176 l 1149 176 m 964 64 l 964 67 q 960 68 964 67 q 956 74 956 69 l 956 101 q 960 107 956 104 q 964 110 964 110 l 964 113 l 950 113 l 917 76 l 917 101 q 921 108 917 107 q 925 110 925 110 l 925 113 l 904 113 l 904 110 q 908 108 904 110 q 913 101 913 107 l 913 63 l 917 63 l 951 101 l 951 74 q 948 68 951 69 q 944 67 944 67 l 944 64 l 964 64 m 879 67 q 875 67 879 67 q 872 74 872 67 l 872 103 q 875 110 872 110 q 879 110 879 110 l 879 113 l 839 113 l 836 99 l 839 97 q 842 103 839 97 q 851 108 844 108 l 857 108 q 863 104 863 108 l 863 90 l 857 90 q 849 94 850 90 q 849 97 849 97 l 846 97 l 846 79 l 849 79 q 849 83 849 79 q 857 88 850 88 l 863 88 l 863 72 q 857 68 863 68 l 851 68 q 841 74 844 68 q 838 81 838 81 l 835 79 l 838 64 l 879 64 l 879 67 m 810 113 l 789 113 l 789 110 q 792 108 789 110 q 792 103 794 107 l 779 76 l 772 90 l 778 101 q 783 108 781 106 q 786 110 786 110 l 786 113 l 750 113 l 751 110 q 754 109 751 110 q 761 101 757 108 l 765 94 l 756 76 l 744 101 q 744 108 742 107 q 747 110 747 110 l 747 113 l 729 113 l 729 110 q 732 108 729 110 q 738 101 735 107 l 756 64 l 757 64 q 758 63 757 64 q 758 64 758 63 l 769 86 l 782 64 l 783 64 l 800 101 q 806 109 803 108 q 810 110 810 110 l 810 113 m 667 110 l 667 113 l 646 113 l 646 110 q 648 109 646 110 q 647 103 650 108 l 639 90 l 631 103 q 631 109 628 108 q 635 110 635 110 l 635 113 l 614 113 l 614 110 q 618 109 614 110 q 625 103 622 108 l 636 86 l 636 75 q 633 67 636 68 q 629 67 629 67 l 629 64 l 653 64 l 653 67 q 649 67 653 67 q 646 75 646 68 l 646 86 l 657 103 q 663 109 660 108 q 667 110 667 110 m 590 89 q 583 107 590 100 q 563 114 576 114 q 542 107 549 114 q 535 89 535 100 q 542 70 535 78 q 563 63 549 63 q 583 70 576 63 q 590 89 590 78 m 506 64 l 506 67 q 502 67 506 67 q 499 74 499 68 l 499 101 q 502 109 499 108 q 506 110 506 110 l 506 113 l 481 113 q 463 100 463 113 q 475 88 463 93 l 465 74 q 458 67 461 68 q 454 67 454 67 l 454 64 l 469 64 l 479 81 q 489 86 483 86 l 489 74 q 485 67 489 68 q 482 67 482 67 l 482 64 l 506 64 m 429 64 l 429 67 q 425 68 429 67 q 421 75 421 69 l 421 103 q 425 109 421 108 q 429 110 429 110 l 429 113 l 404 113 l 404 110 q 408 109 404 110 q 413 103 413 108 l 413 90 q 407 93 410 90 l 396 104 q 395 108 393 107 q 397 110 397 110 l 397 113 l 378 113 l 378 110 q 382 108 378 110 q 389 104 386 107 l 403 92 l 385 74 q 378 69 382 71 q 375 67 375 67 l 375 64 l 399 64 l 399 67 q 395 67 399 67 q 396 74 392 68 l 407 85 q 413 88 410 88 l 413 75 q 408 67 413 68 q 404 67 404 67 l 404 64 l 429 64 m 842 -115 q 826 -106 842 -104 l 826 -124 q 842 -115 842 -124 m 729 -114 q 714 -106 729 -103 l 714 -122 q 729 -114 729 -124 m 547 -115 q 532 -106 547 -104 l 532 -124 q 547 -115 547 -124 m 783 -128 l 776 -111 l 769 -128 l 783 -128 m 1111 -122 q 1096 -104 1111 -104 q 1081 -121 1081 -104 q 1096 -139 1081 -139 q 1111 -122 1111 -139 m 613 -122 q 597 -104 613 -104 q 582 -121 582 -104 q 597 -139 582 -139 q 613 -122 613 -139 m 244 761 l 238 761 q 222 768 226 761 q 217 782 217 775 q 228 794 217 794 q 240 788 239 794 l 244 761 m 786 768 q 776 763 782 763 q 771 765 771 763 q 776 769 771 769 q 786 768 783 769 m 378 768 q 368 763 374 763 q 363 765 363 763 q 368 769 363 769 q 378 768 375 769 m 950 743 q 935 725 950 725 q 911 741 922 725 q 900 778 900 757 q 915 797 900 797 q 939 781 928 797 q 950 743 950 765 m 544 533 l 529 533 q 511 549 511 533 q 529 564 511 564 l 544 564 l 544 533 m 389 278 l 382 278 q 366 285 371 278 q 361 299 361 292 q 372 311 361 311 q 385 304 383 311 l 389 278 m 994 260 q 979 242 994 242 q 956 258 967 242 q 944 294 944 274 q 960 314 944 314 q 983 298 972 314 q 994 260 994 282 m 546 253 q 540 243 546 243 l 533 243 q 508 257 518 243 q 497 288 497 271 q 517 311 497 311 l 525 311 q 530 309 529 310 q 533 301 531 308 l 546 253 m 768 110 q 768 97 774 110 q 768 110 761 110 m 489 89 l 485 89 q 474 100 474 89 q 483 108 474 108 q 489 103 489 108 l 489 89 m 579 89 q 576 72 579 79 q 563 65 572 65 q 550 72 554 65 q 546 89 546 79 q 563 111 546 111 q 579 89 579 111 "},"Ò":{"ha":1181,"x_min":94,"x_max":1086,"o":"m 1086 488 q 1050 295 1086 386 q 949 135 1014 204 q 792 24 883 65 q 589 -17 700 -17 q 387 24 478 -17 q 231 133 296 64 q 130 292 165 201 q 94 485 94 383 q 131 677 94 586 q 232 838 167 768 q 389 948 297 907 q 592 989 481 989 q 794 949 703 989 q 950 840 885 908 q 1051 680 1015 771 q 1086 488 1086 589 m 972 485 q 944 642 972 568 q 864 769 915 715 q 742 856 813 824 q 589 888 672 888 q 435 856 506 888 q 315 771 365 825 q 237 644 265 717 q 208 488 208 571 q 237 331 208 404 q 317 203 265 257 q 438 117 368 149 q 592 85 508 85 q 745 116 675 85 q 865 201 815 147 q 944 328 915 256 q 972 485 972 401 m 540 1058 l 383 1208 l 494 1260 l 626 1058 l 540 1058 "},"Ú":{"ha":1054,"x_min":122,"x_max":932,"o":"m 932 972 l 932 415 q 903 228 932 308 q 820 93 874 147 q 692 12 767 39 q 526 -15 618 -15 q 362 12 436 -15 q 234 92 288 39 q 151 225 181 146 q 122 407 122 304 l 122 972 l 232 972 l 232 414 q 310 171 232 256 q 529 86 389 86 q 743 167 664 86 q 822 407 822 247 l 822 972 l 932 972 m 563 1051 l 476 1051 l 608 1253 l 719 1201 l 563 1051 "},"Û":{"ha":1054,"x_min":122,"x_max":932,"o":"m 932 972 l 932 415 q 903 228 932 308 q 820 93 874 147 q 692 12 767 39 q 526 -15 618 -15 q 362 12 436 -15 q 234 92 288 39 q 151 225 181 146 q 122 407 122 304 l 122 972 l 232 972 l 232 414 q 310 171 232 256 q 529 86 389 86 q 743 167 664 86 q 822 407 822 247 l 822 972 l 932 972 m 525 1147 l 421 1054 l 332 1054 l 479 1236 l 574 1236 l 721 1054 l 629 1054 l 525 1147 "},"Ù":{"ha":1054,"x_min":122,"x_max":932,"o":"m 932 972 l 932 415 q 903 228 932 308 q 820 93 874 147 q 692 12 767 39 q 526 -15 618 -15 q 362 12 436 -15 q 234 92 288 39 q 151 225 181 146 q 122 407 122 304 l 122 972 l 232 972 l 232 414 q 310 171 232 256 q 529 86 389 86 q 743 167 664 86 q 822 407 822 247 l 822 972 l 932 972 m 492 1051 l 335 1201 l 446 1253 l 578 1051 l 492 1051 "},"ı":{"ha":365,"x_min":129,"x_max":236,"o":"m 236 0 l 129 0 l 129 718 l 236 718 l 236 0 "},"ˆ":{"ha":694,"x_min":153,"x_max":542,"o":"m 346 919 l 242 826 l 153 826 l 300 1008 l 394 1008 l 542 826 l 450 826 l 346 919 "},"˜":{"ha":694,"x_min":119,"x_max":575,"o":"m 575 972 q 524 860 554 893 q 443 826 493 826 q 394 835 419 826 q 344 853 369 843 q 297 873 319 864 q 257 882 275 882 q 215 867 229 882 q 185 814 200 851 l 119 832 q 171 944 140 911 q 251 978 201 978 q 300 969 275 978 q 350 949 325 960 q 397 931 375 939 q 438 922 419 922 q 480 938 465 922 q 510 990 494 953 l 575 972 "},"¯":{"ha":694,"x_min":128,"x_max":567,"o":"m 567 833 l 128 833 l 128 926 l 567 926 l 567 833 "},"˘":{"ha":694,"x_min":142,"x_max":553,"o":"m 553 1008 q 490 872 546 921 q 347 824 435 824 q 204 872 260 824 q 142 1008 149 921 l 219 1008 q 263 938 232 964 q 347 913 294 913 q 431 938 400 913 q 475 1008 463 964 l 553 1008 "},"˙":{"ha":694,"x_min":282,"x_max":413,"o":"m 413 826 l 282 826 l 282 960 l 413 960 l 413 826 "},"˚":{"ha":694,"x_min":203,"x_max":492,"o":"m 492 963 q 480 908 492 933 q 448 865 468 883 q 402 835 428 846 q 347 824 376 824 q 292 835 318 824 q 247 865 267 846 q 215 908 226 883 q 203 963 203 933 q 215 1017 203 992 q 247 1060 226 1042 q 292 1090 267 1079 q 347 1101 318 1101 q 402 1090 376 1101 q 448 1060 428 1079 q 480 1017 468 1042 q 492 963 492 992 m 433 963 q 408 1024 433 999 q 347 1049 383 1049 q 286 1024 311 1049 q 261 963 261 999 q 286 901 261 926 q 347 876 311 876 q 408 901 383 876 q 433 963 433 926 "},"¸":{"ha":694,"x_min":208,"x_max":418,"o":"m 333 14 l 418 14 l 313 -215 l 208 -168 l 333 14 "},"˝":{"ha":694,"x_min":117,"x_max":581,"o":"m 429 826 l 344 826 l 476 1028 l 581 976 l 429 826 m 203 826 l 117 826 l 249 1028 l 353 976 l 203 826 "},"˛":{"ha":694,"x_min":254,"x_max":500,"o":"m 357 14 q 349 -57 349 -22 q 385 -138 349 -110 q 500 -171 421 -167 l 500 -228 q 316 -192 378 -235 q 254 -78 254 -149 q 260 -29 254 -53 q 274 14 265 -6 l 357 14 "},"ˇ":{"ha":694,"x_min":153,"x_max":542,"o":"m 349 915 l 453 1008 l 542 1008 l 394 826 l 300 826 l 153 1008 l 244 1008 l 349 915 "},"ł":{"ha":449,"x_min":67,"x_max":383,"o":"m 278 476 l 278 0 l 172 0 l 172 446 l 67 413 l 67 517 l 172 549 l 172 1014 l 278 1014 l 278 581 l 383 614 l 383 510 l 278 476 "},"Š":{"ha":889,"x_min":74,"x_max":803,"o":"m 222 729 q 233 667 222 694 q 274 616 244 639 q 354 574 303 593 q 486 539 406 556 q 726 439 649 503 q 803 263 803 375 q 778 149 803 200 q 709 61 753 97 q 604 6 665 25 q 471 -14 543 -14 q 258 24 354 -14 q 74 142 161 63 l 142 222 q 296 119 218 153 q 475 85 374 85 q 633 131 574 85 q 692 251 692 176 q 681 313 692 286 q 642 363 669 340 q 565 403 614 385 q 439 438 515 421 q 294 479 356 456 q 192 536 232 503 q 132 614 151 569 q 113 719 113 658 q 136 826 113 778 q 203 910 160 875 q 304 966 246 946 q 432 986 363 986 q 619 956 539 986 q 774 867 699 926 l 710 782 q 573 863 642 838 q 429 888 504 888 q 344 875 382 888 q 278 842 306 863 q 237 792 251 821 q 222 729 222 763 m 451 1147 l 556 1240 l 644 1240 l 497 1058 l 403 1058 l 256 1240 l 347 1240 l 451 1147 "},"š":{"ha":692,"x_min":60,"x_max":613,"o":"m 613 201 q 592 110 613 150 q 538 43 572 71 q 458 1 504 15 q 357 -14 411 -14 q 200 15 279 -14 q 60 92 121 43 l 114 168 q 235 100 172 124 q 363 76 299 76 q 469 107 428 76 q 511 190 511 138 l 511 193 q 497 239 511 219 q 457 273 482 258 q 399 299 432 288 q 332 319 367 310 q 248 347 290 332 q 172 383 206 361 q 116 439 138 406 q 94 522 94 472 l 94 525 q 113 609 94 571 q 163 674 131 647 q 241 716 196 701 q 339 731 286 731 q 474 709 406 731 q 597 651 542 688 l 549 571 q 444 622 499 603 q 336 640 389 640 q 235 610 272 640 q 197 536 197 581 l 197 533 q 213 490 197 508 q 253 457 228 471 q 313 432 279 443 q 382 410 346 421 q 465 382 424 397 q 539 343 506 367 q 592 286 572 319 q 613 204 613 253 l 613 201 m 351 915 l 456 1008 l 544 1008 l 397 826 l 303 826 l 156 1008 l 247 1008 l 351 915 "},"Ý":{"ha":994,"x_min":38,"x_max":957,"o":"m 553 386 l 553 0 l 442 0 l 442 385 l 38 972 l 171 972 l 499 486 l 829 972 l 957 972 l 553 386 m 543 1051 l 457 1051 l 589 1253 l 700 1201 l 543 1051 "},"ý":{"ha":821,"x_min":47,"x_max":771,"o":"m 771 718 l 469 -24 q 367 -181 424 -135 q 231 -226 311 -226 q 150 -217 186 -226 q 78 -190 114 -208 l 114 -106 q 166 -126 140 -119 q 226 -132 192 -132 q 308 -103 275 -132 q 374 3 342 -74 l 47 718 l 165 718 l 426 119 l 657 718 l 771 718 m 457 822 l 371 822 l 503 1024 l 614 972 l 457 822 "},"Þ":{"ha":935,"x_min":138,"x_max":865,"o":"m 865 496 q 835 357 865 417 q 752 256 804 297 q 631 195 700 215 q 483 175 561 175 l 247 175 l 247 0 l 138 0 l 138 972 l 247 972 l 247 806 l 501 806 q 651 784 583 806 q 766 723 718 763 q 840 626 814 683 q 865 496 865 568 m 754 492 q 683 651 754 597 q 493 704 611 704 l 247 704 l 247 275 l 488 275 q 597 291 547 275 q 681 335 646 307 q 735 403 717 364 q 754 492 754 443 "},"þ":{"ha":922,"x_min":119,"x_max":844,"o":"m 844 360 q 815 201 844 271 q 738 84 786 132 q 628 10 690 36 q 501 -15 567 -15 q 410 -3 451 -15 q 335 31 368 10 q 274 79 301 51 q 226 138 247 107 l 226 -222 l 119 -222 l 119 1014 l 226 1014 l 226 574 q 276 635 249 606 q 336 685 303 664 q 410 720 369 707 q 501 733 451 733 q 627 708 565 733 q 738 635 689 683 q 815 518 786 588 q 844 360 844 449 m 735 358 q 715 474 735 422 q 660 562 694 525 q 579 618 625 599 q 482 638 533 638 q 385 617 432 638 q 302 561 339 597 q 244 474 265 525 q 222 360 222 422 q 244 245 222 297 q 302 157 265 193 q 385 101 339 121 q 482 81 432 81 q 580 99 533 81 q 660 153 626 118 q 715 241 694 189 q 735 358 735 293 "},"Ž":{"ha":963,"x_min":93,"x_max":872,"o":"m 722 874 l 114 874 l 114 972 l 872 972 l 872 899 l 242 99 l 872 99 l 872 0 l 93 0 l 93 74 l 722 874 m 489 1147 l 593 1240 l 682 1240 l 535 1058 l 440 1058 l 293 1240 l 385 1240 l 489 1147 "},"ž":{"ha":772,"x_min":78,"x_max":700,"o":"m 554 628 l 94 628 l 94 718 l 700 718 l 700 650 l 222 90 l 700 90 l 700 0 l 78 0 l 78 68 l 554 628 m 400 915 l 504 1008 l 593 1008 l 446 826 l 351 826 l 204 1008 l 296 1008 l 400 915 "},"Ł":{"ha":901,"x_min":75,"x_max":836,"o":"m 836 0 l 179 0 l 179 418 l 75 388 l 75 489 l 179 521 l 179 972 l 288 972 l 288 554 l 588 646 l 588 543 l 288 453 l 288 101 l 836 101 l 836 0 "},"Ω":{"ha":1021,"x_min":61,"x_max":1004,"o":"m 776 715 l 1003 715 l 1003 624 l 776 624 l 776 0 l 671 0 l 671 624 l 572 624 l 572 717 l 671 717 l 671 779 q 726 958 671 897 q 886 1019 782 1019 q 951 1015 924 1019 q 1004 1001 979 1011 l 1004 908 q 953 922 976 917 q 901 926 929 926 q 776 774 776 926 l 776 715 m 265 715 l 493 715 l 493 624 l 267 624 l 267 0 l 160 0 l 160 624 l 61 624 l 61 717 l 160 717 l 160 779 q 216 958 160 897 q 376 1019 272 1019 q 441 1015 414 1019 q 494 1001 468 1011 l 494 908 q 442 922 465 917 q 390 926 418 926 q 265 774 265 926 l 265 715 "},"∕":{"ha":596,"x_min":-94,"x_max":660,"o":"m 554 1053 l 660 1053 l 11 -136 l -94 -136 l 554 1053 "},"Ð":{"ha":1128,"x_min":75,"x_max":1033,"o":"m 179 439 l 75 439 l 75 539 l 179 539 l 179 972 l 517 972 q 726 935 631 972 q 890 833 821 899 q 996 679 958 768 q 1033 488 1033 590 q 996 295 1033 385 q 890 140 958 206 q 726 38 821 75 q 517 0 631 0 l 179 0 l 179 439 m 289 539 l 581 539 l 581 439 l 289 439 l 289 101 l 517 101 q 683 131 608 101 q 810 212 758 160 q 891 333 863 264 q 919 485 919 403 q 891 636 919 565 q 810 759 863 707 q 683 841 758 811 q 517 871 608 871 l 289 871 l 289 539 "},"ð":{"ha":879,"x_min":75,"x_max":803,"o":"m 447 854 l 269 767 l 219 832 l 401 917 l 332 1014 l 460 1014 l 496 960 l 633 1026 l 682 961 l 540 896 l 681 689 q 732 607 710 647 q 770 526 754 567 q 794 442 786 486 q 803 350 803 399 q 777 210 803 276 q 703 93 751 143 q 587 13 656 43 q 433 -17 518 -17 q 290 12 356 -17 q 177 89 225 40 q 102 203 129 138 q 75 342 75 268 q 101 478 75 417 q 173 583 128 539 q 278 651 218 626 q 404 675 338 675 q 531 653 479 675 q 629 599 583 631 l 447 854 m 693 339 q 673 436 693 390 q 617 516 653 482 q 534 570 582 550 q 429 590 486 590 q 327 571 372 590 q 250 517 282 551 q 201 437 218 483 q 183 338 183 390 q 202 240 183 286 q 256 157 221 193 q 337 99 290 121 q 440 78 383 78 q 544 99 497 78 q 624 156 590 119 q 675 239 657 192 q 693 339 693 286 "}}}
